{
.appVersion = "895";
DisplayStrings = (
"ELECTRONIC\012FRONTIER\012FOUNDATION"
);
copyright = "Copyright 2016 Jeremy Tribby. SIL OFL License v1.1.";
date = "2016-07-12 00:27:02 +0000";
designer = "Jeremy Tribby";
designerURL = "http://tribby.com/";
familyName = Barlow;
featurePrefixes = (
{
automatic = 1;
code = "languagesystem DFLT dflt;\012";
name = Languagesystems;
}
);
features = (
{
automatic = 1;
code = "sub hyphen hyphen by hyphen_hyphen.liga;\012";
name = liga;
}
);
fontMaster = (
{
alignmentZones = (
"{800, 16}",
"{700, 10}",
"{500, 6}",
"{0, -10}",
"{-200, -12}"
);
ascender = 800;
capHeight = 700;
customParameters = (
{
name = paramArea;
value = "530";
},
{
name = paramDepth;
value = "12";
},
{
name = paramOver;
value = "0";
}
);
descender = -200;
horizontalStems = (
23,
22
);
id = "262880E7-CFE1-4BDA-902E-E24798F3240A";
userData = {
GSCornerRadius = 8;
GSOffsetHorizontal = 11;
GSOffsetMakeStroke = 1;
GSOffsetVertical = 10;
noodleExtremesAndInflections = 1;
noodleRemoveOverlap = 1;
noodleThickness = "22.0";
};
verticalStems = (
22,
21
);
weight = Light;
weightValue = 23;
xHeight = 500;
},
{
alignmentZones = (
"{800, 16}",
"{700, 11}",
"{500, 9}",
"{0, -11}",
"{-200, -10}"
);
ascender = 800;
capHeight = 700;
customParameters = (
{
name = paramArea;
value = "210";
},
{
name = paramDepth;
value = "12";
},
{
name = paramOver;
value = "1";
}
);
descender = -200;
horizontalStems = (
198,
208
);
id = "4F25946F-63AC-42D6-8D55-01CF6A99025B";
userData = {
GSCornerRadius = 12;
GSOffsetHorizontal = 104;
GSOffsetMakeStroke = 1;
GSOffsetVertical = 102;
noodleExtremesAndInflections = 1;
noodleRemoveOverlap = 1;
noodleThickness = "50.0";
};
verticalStems = (
202,
168
);
visible = 1;
weight = Bold;
weightValue = 202;
xHeight = 500;
}
);
glyphs = (
{
color = 1;
glyphname = A;
lastChange = "2016-10-16 00:43:24 +0000";
layers = (
{
layerId = "262880E7-CFE1-4BDA-902E-E24798F3240A";
paths = (
{
closed = 1;
nodes = (
"106 0 LINE",
"260 656 LINE",
"414 0 LINE",
"436 0 LINE",
"271 700 LINE",
"249 700 LINE",
"84 0 LINE"
);
},
{
closed = 1;
nodes = (
"383 145 LINE",
"383 166 LINE",
"136 166 LINE",
"136 145 LINE"
);
}
);
width = 520;
},
{
layerId = "4F25946F-63AC-42D6-8D55-01CF6A99025B";
paths = (
{
closed = 1;
nodes = (
"230 0 LINE",
"285 426 LINE",
"340 0 LINE",
"566 0 LINE",
"401 700 LINE",
"169 700 LINE",
"4 0 LINE"
);
},
{
closed = 1;
nodes = (
"435 79 LINE",
"435 214 LINE",
"135 214 LINE",
"135 79 LINE"
);
}
);
width = 570;
},
{
associatedMasterId = "262880E7-CFE1-4BDA-902E-E24798F3240A";
layerId = "09B97E43-C149-48A2-81D6-63259EF6020F";
name = "DemiBold{119,100}";
paths = (
{
closed = 1;
nodes = (
"153 0 LINE",
"254 527 LINE",
"355 0 LINE",
"486 0 LINE",
"321 700 LINE",
"187 700 LINE",
"22 0 LINE"
);
},
{
closed = 1;
nodes = (
"391 101 LINE",
"391 212 LINE",
"116 212 LINE",
"116 101 LINE"
);
}
);
width = 508;
}
);
unicode = 0041;
},
{
color = 1;
glyphname = B;
lastChange = "2016-10-16 00:43:24 +0000";
layers = (
{
layerId = "262880E7-CFE1-4BDA-902E-E24798F3240A";
paths = (
{
closed = 1;
nodes = (
"279 351 LINE SMOOTH",
"394 351 OFFCURVE",
"465 415 OFFCURVE",
"465 523 CURVE SMOOTH",
"465 631 OFFCURVE",
"394 700 OFFCURVE",
"279 700 CURVE SMOOTH",
"133 700 LINE",
"133 351 LINE"
);
},
{
closed = 1;
nodes = (
"279 0 LINE SMOOTH",
"394 0 OFFCURVE",
"465 71 OFFCURVE",
"465 186 CURVE SMOOTH",
"465 301 OFFCURVE",
"394 372 OFFCURVE",
"279 372 CURVE SMOOTH",
"133 372 LINE",
"133 0 LINE"
);
},
{
closed = 1;
nodes = (
"155 351 LINE",
"279 351 LINE SMOOTH",
"381 351 OFFCURVE",
"443 288 OFFCURVE",
"443 186 CURVE SMOOTH",
"443 84 OFFCURVE",
"381 22 OFFCURVE",
"279 22 CURVE SMOOTH",
"155 22 LINE"
);
},
{
closed = 1;
nodes = (
"155 679 LINE",
"279 679 LINE SMOOTH",
"381 679 OFFCURVE",
"443 618 OFFCURVE",
"443 523 CURVE SMOOTH",
"443 428 OFFCURVE",
"381 372 OFFCURVE",
"279 372 CURVE SMOOTH",
"155 372 LINE"
);
}
);
width = 572;
},
{
layerId = "4F25946F-63AC-42D6-8D55-01CF6A99025B";
paths = (
{
closed = 1;
nodes = (
"306 308 LINE SMOOTH",
"452 308 OFFCURVE",
"550 386 OFFCURVE",
"550 502 CURVE SMOOTH",
"550 621 OFFCURVE",
"450 700 OFFCURVE",
"301 700 CURVE SMOOTH",
"53 700 LINE",
"53 308 LINE"
);
},
{
closed = 1;
nodes = (
"330 0 LINE SMOOTH",
"475 0 OFFCURVE",
"571 82 OFFCURVE",
"571 205 CURVE SMOOTH",
"571 338 OFFCURVE",
"465 426 OFFCURVE",
"305 426 CURVE",
"53 426 LINE",
"53 0 LINE"
);
},
{
closed = 1;
nodes = (
"246 286 LINE",
"306 286 LINE SMOOTH",
"337 286 OFFCURVE",
"357 266 OFFCURVE",
"357 235 CURVE SMOOTH",
"357 203 OFFCURVE",
"336 182 OFFCURVE",
"305 182 CURVE SMOOTH",
"246 182 LINE"
);
},
{
closed = 1;
nodes = (
"246 536 LINE",
"305 536 LINE",
"334 536 OFFCURVE",
"354 517 OFFCURVE",
"354 489 CURVE SMOOTH",
"354 462 OFFCURVE",
"334 444 OFFCURVE",
"305 444 CURVE",
"246 444 LINE"
);
}
);
width = 590;
}
);
unicode = 0042;
},
{
color = 1;
glyphname = C;
lastChange = "2016-10-16 00:43:23 +0000";
layers = (
{
layerId = "262880E7-CFE1-4BDA-902E-E24798F3240A";
paths = (
{
closed = 1;
nodes = (
"384 -9 OFFCURVE",
"446 50 OFFCURVE",
"446 150 CURVE SMOOTH",
"446 152 LINE",
"424 152 LINE",
"424 150 LINE SMOOTH",
"424 64 OFFCURVE",
"372 11 OFFCURVE",
"285 11 CURVE SMOOTH",
"198 11 OFFCURVE",
"146 64 OFFCURVE",
"146 150 CURVE SMOOTH",
"146 550 LINE SMOOTH",
"146 637 OFFCURVE",
"200 690 OFFCURVE",
"285 690 CURVE SMOOTH",
"370 690 OFFCURVE",
"424 637 OFFCURVE",
"424 550 CURVE SMOOTH",
"424 548 LINE",
"446 548 LINE",
"446 550 LINE SMOOTH",
"446 650 OFFCURVE",
"384 709 OFFCURVE",
"285 709 CURVE SMOOTH",
"186 709 OFFCURVE",
"124 650 OFFCURVE",
"124 550 CURVE SMOOTH",
"124 150 LINE SMOOTH",
"124 50 OFFCURVE",
"186 -9 OFFCURVE",
"285 -9 CURVE SMOOTH"
);
}
);
width = 538;
},
{
layerId = "4F25946F-63AC-42D6-8D55-01CF6A99025B";
paths = (
{
closed = 1;
nodes = (
"447 -10 OFFCURVE",
"549 67 OFFCURVE",
"549 183 CURVE SMOOTH",
"549 278 LINE",
"337 278 LINE",
"337 223 LINE SMOOTH",
"337 196 OFFCURVE",
"319 178 OFFCURVE",
"293 178 CURVE SMOOTH",
"267 178 OFFCURVE",
"249 196 OFFCURVE",
"249 223 CURVE SMOOTH",
"249 477 LINE SMOOTH",
"249 504 OFFCURVE",
"267 522 OFFCURVE",
"293 522 CURVE SMOOTH",
"319 522 OFFCURVE",
"337 504 OFFCURVE",
"337 477 CURVE SMOOTH",
"337 422 LINE",
"549 422 LINE",
"549 517 LINE SMOOTH",
"549 633 OFFCURVE",
"447 710 OFFCURVE",
"293 710 CURVE SMOOTH",
"139 710 OFFCURVE",
"37 633 OFFCURVE",
"37 517 CURVE SMOOTH",
"37 183 LINE SMOOTH",
"37 67 OFFCURVE",
"139 -10 OFFCURVE",
"293 -10 CURVE SMOOTH"
);
}
);
width = 576;
}
);
unicode = 0043;
},
{
color = 1;
glyphname = D;
lastChange = "2016-10-16 00:43:22 +0000";
layers = (
{
layerId = "262880E7-CFE1-4BDA-902E-E24798F3240A";
paths = (
{
closed = 1;
nodes = (
"294 0 LINE SMOOTH",
"394 0 OFFCURVE",
"455 61 OFFCURVE",
"455 161 CURVE SMOOTH",
"455 539 LINE SMOOTH",
"455 639 OFFCURVE",
"394 700 OFFCURVE",
"294 700 CURVE SMOOTH",
"133 700 LINE",
"133 0 LINE"
);
},
{
closed = 1;
nodes = (
"155 679 LINE",
"294 679 LINE SMOOTH",
"380 679 OFFCURVE",
"433 626 OFFCURVE",
"433 539 CURVE SMOOTH",
"433 161 LINE SMOOTH",
"433 75 OFFCURVE",
"380 22 OFFCURVE",
"294 22 CURVE SMOOTH",
"155 22 LINE"
);
}
);
width = 577;
},
{
layerId = "4F25946F-63AC-42D6-8D55-01CF6A99025B";
paths = (
{
closed = 1;
nodes = (
"340 0 LINE SMOOTH",
"471 0 OFFCURVE",
"552 73 OFFCURVE",
"552 193 CURVE SMOOTH",
"552 507 LINE SMOOTH",
"552 627 OFFCURVE",
"471 700 OFFCURVE",
"340 700 CURVE SMOOTH",
"53 700 LINE",
"53 0 LINE"
);
},
{
closed = 1;
nodes = (
"261 526 LINE",
"296 526 LINE SMOOTH",
"323 526 OFFCURVE",
"340 509 OFFCURVE",
"340 481 CURVE SMOOTH",
"340 219 LINE SMOOTH",
"340 191 OFFCURVE",
"323 174 OFFCURVE",
"296 174 CURVE SMOOTH",
"261 174 LINE"
);
}
);
width = 589;
},
{
associatedMasterId = "262880E7-CFE1-4BDA-902E-E24798F3240A";
layerId = "5FA87B53-3B99-492D-B797-6707203108CA";
name = "DemiBold{119,100}";
paths = (
{
closed = 1;
nodes = (
"296 0 LINE SMOOTH",
"412 0 OFFCURVE",
"484 67 OFFCURVE",
"484 178 CURVE SMOOTH",
"484 522 LINE SMOOTH",
"484 633 OFFCURVE",
"412 700 OFFCURVE",
"296 700 CURVE SMOOTH",
"75 700 LINE",
"75 0 LINE"
);
},
{
closed = 1;
nodes = (
"199 597 LINE",
"272 597 LINE SMOOTH",
"326 597 OFFCURVE",
"360 563 OFFCURVE",
"360 508 CURVE SMOOTH",
"360 192 LINE SMOOTH",
"360 137 OFFCURVE",
"326 104 OFFCURVE",
"272 104 CURVE SMOOTH",
"199 104 LINE"
);
}
);
width = 545;
}
);
unicode = 0044;
},
{
color = 1;
glyphname = E;
lastChange = "2016-10-16 00:43:23 +0000";
layers = (
{
layerId = "262880E7-CFE1-4BDA-902E-E24798F3240A";
paths = (
{
closed = 1;
nodes = (
"454 0 LINE",
"454 22 LINE",
"155 22 LINE",
"155 679 LINE",
"454 679 LINE",
"454 700 LINE",
"133 700 LINE",
"133 0 LINE"
);
},
{
closed = 1;
nodes = (
"349 340 LINE",
"349 361 LINE",
"144 361 LINE",
"144 340 LINE"
);
}
);
width = 534;
},
{
layerId = "4F25946F-63AC-42D6-8D55-01CF6A99025B";
paths = (
{
closed = 1;
nodes = (
"515 0 LINE",
"515 188 LINE",
"261 188 LINE",
"261 512 LINE",
"515 512 LINE",
"515 700 LINE",
"53 700 LINE",
"53 0 LINE"
);
},
{
closed = 1;
nodes = (
"405 266 LINE",
"405 434 LINE",
"175 434 LINE",
"175 266 LINE"
);
}
);
width = 543;
},
{
associatedMasterId = "262880E7-CFE1-4BDA-902E-E24798F3240A";
layerId = "DE3E8A9A-5DAD-493A-9E98-F56387BAB1C1";
name = "DemiBold{119,100}";
paths = (
{
closed = 1;
nodes = (
"464 0 LINE",
"464 111 LINE",
"199 111 LINE",
"199 589 LINE",
"464 589 LINE",
"464 700 LINE",
"75 700 LINE",
"75 0 LINE"
);
},
{
closed = 1;
nodes = (
"356 300 LINE",
"356 400 LINE",
"147 400 LINE",
"147 300 LINE"
);
}
);
width = 520;
}
);
unicode = 0045;
},
{
color = 1;
glyphname = F;
lastChange = "2016-10-16 00:43:24 +0000";
layers = (
{
layerId = "262880E7-CFE1-4BDA-902E-E24798F3240A";
paths = (
{
closed = 1;
nodes = (
"155 0 LINE",
"155 679 LINE",
"454 679 LINE",
"454 700 LINE",
"133 700 LINE",
"133 0 LINE"
);
},
{
closed = 1;
nodes = (
"349 340 LINE",
"349 361 LINE",
"144 361 LINE",
"144 340 LINE"
);
}
);
width = 530;
},
{
layerId = "4F25946F-63AC-42D6-8D55-01CF6A99025B";
paths = (
{
closed = 1;
nodes = (
"261 0 LINE",
"261 512 LINE",
"509 512 LINE",
"509 700 LINE",
"53 700 LINE",
"53 0 LINE"
);
},
{
closed = 1;
nodes = (
"397 266 LINE",
"397 434 LINE",
"174 434 LINE",
"174 266 LINE"
);
}
);
width = 520;
},
{
associatedMasterId = "262880E7-CFE1-4BDA-902E-E24798F3240A";
layerId = "E70C252C-4698-4A26-900C-4F3FD049D2BA";
name = "DemiBold{119,100}";
paths = (
{
closed = 1;
nodes = (
"201 0 LINE",
"201 589 LINE",
"462 589 LINE",
"462 700 LINE",
"75 700 LINE",
"75 0 LINE"
);
},
{
closed = 1;
nodes = (
"354 300 LINE",
"354 400 LINE",
"149 400 LINE",
"149 300 LINE"
);
}
);
width = 509;
}
);
unicode = 0046;
},
{
color = 1;
glyphname = G;
lastChange = "2016-10-16 00:43:24 +0000";
layers = (
{
layerId = "262880E7-CFE1-4BDA-902E-E24798F3240A";
paths = (
{
closed = 1;
nodes = (
"384 -9 OFFCURVE",
"446 51 OFFCURVE",
"446 150 CURVE",
"446 361 LINE",
"285 361 LINE",
"285 340 LINE",
"424 340 LINE",
"424 150 LINE",
"424 63 OFFCURVE",
"372 11 OFFCURVE",
"285 11 CURVE SMOOTH",
"198 11 OFFCURVE",
"146 63 OFFCURVE",
"146 150 CURVE",
"146 550 LINE",
"146 637 OFFCURVE",
"198 690 OFFCURVE",
"285 690 CURVE SMOOTH",
"372 690 OFFCURVE",
"424 637 OFFCURVE",
"424 550 CURVE",
"446 550 LINE",
"446 649 OFFCURVE",
"384 709 OFFCURVE",
"285 709 CURVE SMOOTH",
"186 709 OFFCURVE",
"124 649 OFFCURVE",
"124 550 CURVE",
"124 150 LINE",
"124 51 OFFCURVE",
"186 -9 OFFCURVE",
"285 -9 CURVE SMOOTH"
);
}
);
width = 556;
},
{
layerId = "4F25946F-63AC-42D6-8D55-01CF6A99025B";
paths = (
{
closed = 1;
nodes = (
"442 -10 OFFCURVE",
"544 88 OFFCURVE",
"544 234 CURVE SMOOTH",
"544 400 LINE",
"288 400 LINE",
"288 270 LINE",
"332 270 LINE",
"332 234 LINE SMOOTH",
"332 200 OFFCURVE",
"314 178 OFFCURVE",
"288 178 CURVE SMOOTH",
"262 178 OFFCURVE",
"244 200 OFFCURVE",
"244 234 CURVE SMOOTH",
"244 466 LINE SMOOTH",
"244 500 OFFCURVE",
"262 522 OFFCURVE",
"288 522 CURVE SMOOTH",
"314 522 OFFCURVE",
"332 500 OFFCURVE",
"332 466 CURVE",
"544 466 LINE",
"544 612 OFFCURVE",
"442 710 OFFCURVE",
"288 710 CURVE SMOOTH",
"134 710 OFFCURVE",
"32 612 OFFCURVE",
"32 466 CURVE SMOOTH",
"32 234 LINE SMOOTH",
"32 88 OFFCURVE",
"134 -10 OFFCURVE",
"288 -10 CURVE SMOOTH"
);
}
);
width = 573;
},
{
associatedMasterId = "262880E7-CFE1-4BDA-902E-E24798F3240A";
layerId = "4BB53C67-4989-441E-8A0D-7E4F5FC64094";
name = "Medium {91, 100}";
paths = (
{
closed = 1;
nodes = (
"386 -11 OFFCURVE",
"463 65 OFFCURVE",
"463 182 CURVE",
"463 376 LINE",
"266 376 LINE",
"266 293 LINE",
"369 293 LINE",
"369 182 LINE",
"369 115 OFFCURVE",
"330 74 OFFCURVE",
"266 74 CURVE SMOOTH",
"202 74 OFFCURVE",
"163 115 OFFCURVE",
"163 182 CURVE",
"163 518 LINE",
"163 585 OFFCURVE",
"202 626 OFFCURVE",
"266 626 CURVE SMOOTH",
"330 626 OFFCURVE",
"369 585 OFFCURVE",
"369 518 CURVE",
"463 518 LINE",
"463 635 OFFCURVE",
"386 711 OFFCURVE",
"266 711 CURVE SMOOTH",
"146 711 OFFCURVE",
"69 635 OFFCURVE",
"69 518 CURVE",
"69 182 LINE",
"69 65 OFFCURVE",
"146 -11 OFFCURVE",
"266 -11 CURVE SMOOTH"
);
}
);
width = 524;
}
);
unicode = 0047;
},
{
color = 1;
glyphname = H;
lastChange = "2016-10-16 00:43:23 +0000";
layers = (
{
layerId = "262880E7-CFE1-4BDA-902E-E24798F3240A";
paths = (
{
closed = 1;
nodes = (
"455 0 LINE",
"455 700 LINE",
"433 700 LINE",
"433 0 LINE"
);
},
{
closed = 1;
nodes = (
"155 0 LINE",
"155 700 LINE",
"133 700 LINE",
"133 0 LINE"
);
},
{
closed = 1;
nodes = (
"438 340 LINE",
"438 361 LINE",
"150 361 LINE",
"150 340 LINE"
);
}
);
width = 588;
},
{
layerId = "4F25946F-63AC-42D6-8D55-01CF6A99025B";
paths = (
{
closed = 1;
nodes = (
"561 0 LINE",
"561 700 LINE",
"351 700 LINE",
"351 0 LINE"
);
},
{
closed = 1;
nodes = (
"263 0 LINE",
"263 700 LINE",
"53 700 LINE",
"53 0 LINE"
);
},
{
closed = 1;
nodes = (
"367 246 LINE",
"367 434 LINE",
"247 434 LINE",
"247 246 LINE"
);
}
);
width = 614;
}
);
unicode = 0048;
},
{
color = 1;
glyphname = I;
lastChange = "2016-10-16 00:43:24 +0000";
layers = (
{
layerId = "262880E7-CFE1-4BDA-902E-E24798F3240A";
paths = (
{
closed = 1;
nodes = (
"155 0 LINE",
"155 700 LINE",
"133 700 LINE",
"133 0 LINE"
);
}
);
width = 288;
},
{
layerId = "4F25946F-63AC-42D6-8D55-01CF6A99025B";
paths = (
{
closed = 1;
nodes = (
"255 0 LINE",
"255 700 LINE",
"53 700 LINE",
"53 0 LINE"
);
}
);
width = 308;
}
);
unicode = 0049;
},
{
color = 1;
glyphname = J;
lastChange = "2016-10-16 00:43:22 +0000";
layers = (
{
layerId = "262880E7-CFE1-4BDA-902E-E24798F3240A";
paths = (
{
closed = 1;
nodes = (
"343 -11 OFFCURVE",
"403 50 OFFCURVE",
"403 150 CURVE SMOOTH",
"403 700 LINE",
"381 700 LINE",
"381 150 LINE",
"381 64 OFFCURVE",
"329 11 OFFCURVE",
"245 11 CURVE SMOOTH",
"161 11 OFFCURVE",
"109 64 OFFCURVE",
"109 150 CURVE SMOOTH",
"109 195 LINE",
"87 195 LINE",
"87 150 LINE SMOOTH",
"87 50 OFFCURVE",
"147 -11 OFFCURVE",
"245 -11 CURVE SMOOTH"
);
}
);
width = 532;
},
{
layerId = "4F25946F-63AC-42D6-8D55-01CF6A99025B";
paths = (
{
closed = 1;
nodes = (
"412 -10 OFFCURVE",
"512 88 OFFCURVE",
"512 235 CURVE",
"507 702 LINE",
"295 700 LINE",
"300 233 LINE",
"300 200 OFFCURVE",
"284 178 OFFCURVE",
"261 178 CURVE SMOOTH",
"238 178 OFFCURVE",
"222 200 OFFCURVE",
"222 234 CURVE SMOOTH",
"222 290 LINE",
"10 290 LINE",
"10 234 LINE SMOOTH",
"10 88 OFFCURVE",
"110 -10 OFFCURVE",
"261 -10 CURVE SMOOTH"
);
}
);
width = 553;
}
);
unicode = 004A;
},
{
color = 1;
glyphname = K;
lastChange = "2016-10-16 00:43:23 +0000";
layers = (
{
layerId = "262880E7-CFE1-4BDA-902E-E24798F3240A";
paths = (
{
closed = 1;
nodes = (
"465 0 LINE",
"169 350 LINE",
"465 700 LINE",
"439 700 LINE",
"141 350 LINE",
"439 0 LINE"
);
},
{
closed = 1;
nodes = (
"155 0 LINE",
"155 700 LINE",
"133 700 LINE",
"133 0 LINE"
);
}
);
width = 544;
},
{
layerId = "4F25946F-63AC-42D6-8D55-01CF6A99025B";
paths = (
{
closed = 1;
nodes = (
"584 0 LINE",
"409 350 LINE",
"581 700 LINE",
"331 700 LINE",
"191 350 LINE",
"331 0 LINE"
);
},
{
closed = 1;
nodes = (
"261 0 LINE",
"261 700 LINE",
"53 700 LINE",
"53 0 LINE"
);
}
);
width = 588;
},
{
associatedMasterId = "262880E7-CFE1-4BDA-902E-E24798F3240A";
layerId = "52A147BE-A087-4D72-9A5D-908B44B10E17";
name = "Medium {91, 100}";
paths = (
{
closed = 1;
nodes = (
"482 0 LINE",
"218 350 LINE",
"480 700 LINE",
"365 700 LINE",
"100 350 LINE",
"365 0 LINE"
);
},
{
closed = 1;
nodes = (
"176 0 LINE",
"176 700 LINE",
"82 700 LINE",
"82 0 LINE"
);
}
);
width = 527;
},
{
associatedMasterId = "4F25946F-63AC-42D6-8D55-01CF6A99025B";
layerId = "57219196-2667-4E9B-A894-DD00D1913D76";
name = "Bold Oct 15 16, 02:53";
paths = (
{
closed = 1;
nodes = (
"590 0 LINE",
"413 350 LINE",
"585 700 LINE",
"335 700 LINE",
"193 350 LINE",
"335 0 LINE"
);
},
{
closed = 1;
nodes = (
"265 0 LINE",
"265 700 LINE",
"57 700 LINE",
"57 0 LINE"
);
}
);
width = 593;
}
);
unicode = 004B;
},
{
color = 1;
glyphname = L;
lastChange = "2016-10-16 00:43:22 +0000";
layers = (
{
layerId = "262880E7-CFE1-4BDA-902E-E24798F3240A";
paths = (
{
closed = 1;
nodes = (
"444 0 LINE",
"444 22 LINE",
"155 22 LINE",
"155 700 LINE",
"133 700 LINE",
"133 0 LINE"
);
}
);
width = 520;
},
{
layerId = "4F25946F-63AC-42D6-8D55-01CF6A99025B";
paths = (
{
closed = 1;
nodes = (
"520 0 LINE",
"520 192 LINE",
"261 192 LINE",
"261 700 LINE",
"53 700 LINE",
"53 0 LINE"
);
}
);
width = 531;
}
);
unicode = 004C;
},
{
color = 1;
glyphname = M;
lastChange = "2016-10-16 00:43:23 +0000";
layers = (
{
layerId = "262880E7-CFE1-4BDA-902E-E24798F3240A";
paths = (
{
closed = 1;
nodes = (
"152 0 LINE",
"155 655 LINE",
"312 324 LINE",
"470 655 LINE",
"470 0 LINE",
"491 0 LINE",
"491 700 LINE",
"469 700 LINE",
"312 372 LINE",
"155 700 LINE",
"133 700 LINE",
"133 0 LINE"
);
}
);
width = 624;
},
{
layerId = "4F25946F-63AC-42D6-8D55-01CF6A99025B";
paths = (
{
closed = 1;
nodes = (
"265 0 LINE",
"265 364 LINE",
"347 232 LINE",
"429 364 LINE",
"429 0 LINE",
"641 0 LINE",
"641 698 LINE",
"435 698 LINE",
"347 522 LINE",
"256 702 LINE",
"53 702 LINE",
"53 0 LINE"
);
}
);
width = 694;
},
{
associatedMasterId = "4F25946F-63AC-42D6-8D55-01CF6A99025B";
layerId = "BF6C6FBC-ABCF-4728-B32F-BE7F013B92F9";
name = "Medium {91, 100}";
paths = (
{
closed = 1;
nodes = (
"174 0 LINE",
"176 501 LINE",
"305 256 LINE",
"434 501 LINE",
"434 0 LINE",
"528 0 LINE",
"528 699 LINE",
"436 699 LINE",
"305 429 LINE",
"173 701 LINE",
"82 701 LINE",
"82 0 LINE"
);
}
);
width = 610;
}
);
unicode = 004D;
},
{
color = 1;
glyphname = N;
lastChange = "2016-10-16 00:43:23 +0000";
layers = (
{
layerId = "262880E7-CFE1-4BDA-902E-E24798F3240A";
paths = (
{
closed = 1;
nodes = (
"155 0 LINE",
"155 647 LINE",
"432 0 LINE",
"455 0 LINE",
"455 700 LINE",
"433 700 LINE",
"433 53 LINE",
"156 700 LINE",
"133 700 LINE",
"133 0 LINE"
);
}
);
width = 588;
},
{
layerId = "4F25946F-63AC-42D6-8D55-01CF6A99025B";
paths = (
{
closed = 1;
nodes = (
"253 0 LINE",
"256 258 LINE",
"384 0 LINE",
"548 0 LINE",
"548 700 LINE",
"351 700 LINE",
"351 400 LINE",
"217 700 LINE",
"53 700 LINE",
"53 0 LINE"
);
}
);
width = 601;
},
{
associatedMasterId = "4F25946F-63AC-42D6-8D55-01CF6A99025B";
layerId = "0B1885C1-B30B-43AF-BA88-F41889FEAFD7";
name = "DemiBold{119,100}";
paths = (
{
closed = 1;
nodes = (
"193 0 LINE",
"195 358 LINE",
"387 0 LINE",
"488 0 LINE",
"488 700 LINE",
"369 700 LINE",
"369 314 LINE",
"174 700 LINE",
"75 700 LINE",
"75 0 LINE"
);
}
);
width = 563;
}
);
unicode = 004E;
},
{
color = 1;
glyphname = O;
lastChange = "2016-10-16 00:43:24 +0000";
layers = (
{
layerId = "262880E7-CFE1-4BDA-902E-E24798F3240A";
paths = (
{
closed = 1;
nodes = (
"372 -9 OFFCURVE",
"444 60 OFFCURVE",
"444 150 CURVE SMOOTH",
"444 550 LINE SMOOTH",
"444 640 OFFCURVE",
"372 709 OFFCURVE",
"283 709 CURVE SMOOTH",
"194 709 OFFCURVE",
"122 640 OFFCURVE",
"122 550 CURVE SMOOTH",
"122 150 LINE SMOOTH",
"122 60 OFFCURVE",
"194 -9 OFFCURVE",
"283 -9 CURVE SMOOTH"
);
},
{
closed = 1;
nodes = (
"204 11 OFFCURVE",
"144 72 OFFCURVE",
"144 150 CURVE SMOOTH",
"144 550 LINE SMOOTH",
"144 629 OFFCURVE",
"206 690 OFFCURVE",
"283 690 CURVE SMOOTH",
"360 690 OFFCURVE",
"422 629 OFFCURVE",
"422 550 CURVE SMOOTH",
"422 150 LINE SMOOTH",
"422 72 OFFCURVE",
"362 11 OFFCURVE",
"283 11 CURVE SMOOTH"
);
}
);
width = 566;
},
{
layerId = "4F25946F-63AC-42D6-8D55-01CF6A99025B";
paths = (
{
closed = 1;
nodes = (
"448 -10 OFFCURVE",
"552 87 OFFCURVE",
"552 233 CURVE SMOOTH",
"552 467 LINE SMOOTH",
"552 613 OFFCURVE",
"448 710 OFFCURVE",
"292 710 CURVE SMOOTH",
"136 710 OFFCURVE",
"32 613 OFFCURVE",
"32 467 CURVE SMOOTH",
"32 233 LINE SMOOTH",
"32 87 OFFCURVE",
"136 -10 OFFCURVE",
"292 -10 CURVE SMOOTH"
);
},
{
closed = 1;
nodes = (
"263 174 OFFCURVE",
"244 194 OFFCURVE",
"244 223 CURVE SMOOTH",
"244 477 LINE SMOOTH",
"244 506 OFFCURVE",
"263 526 OFFCURVE",
"292 526 CURVE SMOOTH",
"321 526 OFFCURVE",
"340 506 OFFCURVE",
"340 477 CURVE SMOOTH",
"340 223 LINE SMOOTH",
"340 194 OFFCURVE",
"321 174 OFFCURVE",
"292 174 CURVE SMOOTH"
);
}
);
width = 584;
}
);
unicode = 004F;
},
{
color = 1;
glyphname = P;
lastChange = "2016-10-16 00:43:23 +0000";
layers = (
{
layerId = "262880E7-CFE1-4BDA-902E-E24798F3240A";
paths = (
{
closed = 1;
nodes = (
"155 0 LINE",
"155 679 LINE",
"279 679 LINE SMOOTH",
"379 679 OFFCURVE",
"440 616 OFFCURVE",
"440 513 CURVE SMOOTH",
"440 409 OFFCURVE",
"379 346 OFFCURVE",
"279 346 CURVE SMOOTH",
"150 346 LINE",
"150 324 LINE",
"279 325 LINE SMOOTH",
"392 326 OFFCURVE",
"462 397 OFFCURVE",
"462 512 CURVE SMOOTH",
"462 629 OFFCURVE",
"392 700 OFFCURVE",
"279 700 CURVE SMOOTH",
"133 700 LINE",
"133 0 LINE"
);
}
);
width = 553;
},
{
layerId = "4F25946F-63AC-42D6-8D55-01CF6A99025B";
paths = (
{
closed = 1;
nodes = (
"265 0 LINE",
"265 512 LINE",
"294 512 LINE SMOOTH",
"323 512 OFFCURVE",
"343 492 OFFCURVE",
"343 462 CURVE SMOOTH",
"343 432 OFFCURVE",
"323 412 OFFCURVE",
"294 412 CURVE SMOOTH",
"249 412 LINE",
"249 233 LINE",
"333 233 LINE SMOOTH",
"466 233 OFFCURVE",
"555 326 OFFCURVE",
"555 465 CURVE SMOOTH",
"555 606 OFFCURVE",
"463 700 OFFCURVE",
"324 700 CURVE SMOOTH",
"53 700 LINE",
"53 0 LINE"
);
}
);
width = 568;
}
);
unicode = 0050;
},
{
color = 1;
glyphname = Q;
lastChange = "2016-10-16 00:43:23 +0000";
layers = (
{
layerId = "262880E7-CFE1-4BDA-902E-E24798F3240A";
paths = (
{
closed = 1;
nodes = (
"372 -11 OFFCURVE",
"444 60 OFFCURVE",
"444 150 CURVE SMOOTH",
"444 550 LINE SMOOTH",
"444 640 OFFCURVE",
"372 711 OFFCURVE",
"283 711 CURVE SMOOTH",
"194 711 OFFCURVE",
"122 640 OFFCURVE",
"122 550 CURVE SMOOTH",
"122 150 LINE SMOOTH",
"122 60 OFFCURVE",
"194 -11 OFFCURVE",
"283 -11 CURVE SMOOTH"
);
},
{
closed = 1;
nodes = (
"461 -41 LINE",
"252 11 LINE",
"247 -7 LINE",
"454 -65 LINE"
);
},
{
closed = 1;
nodes = (
"204 11 OFFCURVE",
"144 72 OFFCURVE",
"144 150 CURVE SMOOTH",
"144 550 LINE SMOOTH",
"144 629 OFFCURVE",
"206 690 OFFCURVE",
"283 690 CURVE SMOOTH",
"360 690 OFFCURVE",
"422 629 OFFCURVE",
"422 550 CURVE SMOOTH",
"422 150 LINE SMOOTH",
"422 72 OFFCURVE",
"362 11 OFFCURVE",
"283 11 CURVE SMOOTH"
);
}
);
width = 567;
},
{
layerId = "4F25946F-63AC-42D6-8D55-01CF6A99025B";
paths = (
{
closed = 1;
nodes = (
"443 -10 OFFCURVE",
"545 87 OFFCURVE",
"545 233 CURVE SMOOTH",
"545 467 LINE SMOOTH",
"545 613 OFFCURVE",
"443 710 OFFCURVE",
"289 710 CURVE SMOOTH",
"135 710 OFFCURVE",
"33 613 OFFCURVE",
"33 467 CURVE SMOOTH",
"33 233 LINE SMOOTH",
"33 87 OFFCURVE",
"135 -10 OFFCURVE",
"289 -10 CURVE SMOOTH"
);
},
{
closed = 1;
nodes = (
"561 113 LINE",
"237 118 LINE",
"237 -6 LINE",
"553 -43 LINE"
);
},
{
closed = 1;
nodes = (
"263 178 OFFCURVE",
"245 196 OFFCURVE",
"245 223 CURVE SMOOTH",
"245 477 LINE SMOOTH",
"245 504 OFFCURVE",
"263 522 OFFCURVE",
"289 522 CURVE SMOOTH",
"315 522 OFFCURVE",
"333 504 OFFCURVE",
"333 477 CURVE SMOOTH",
"333 223 LINE SMOOTH",
"333 196 OFFCURVE",
"315 178 OFFCURVE",
"289 178 CURVE SMOOTH"
);
}
);
width = 591;
}
);
unicode = 0051;
},
{
color = 1;
glyphname = R;
lastChange = "2016-10-16 00:43:23 +0000";
layers = (
{
layerId = "262880E7-CFE1-4BDA-902E-E24798F3240A";
paths = (
{
closed = 1;
nodes = (
"155 0 LINE",
"155 679 LINE",
"282 679 LINE SMOOTH",
"382 679 OFFCURVE",
"443 616 OFFCURVE",
"443 512 CURVE SMOOTH",
"443 408 OFFCURVE",
"382 344 OFFCURVE",
"282 344 CURVE SMOOTH",
"150 344 LINE",
"150 322 LINE",
"282 323 LINE SMOOTH",
"395 324 OFFCURVE",
"465 395 OFFCURVE",
"465 511 CURVE SMOOTH",
"465 628 OFFCURVE",
"395 700 OFFCURVE",
"282 700 CURVE SMOOTH",
"133 700 LINE",
"133 0 LINE"
);
},
{
closed = 1;
nodes = (
"423 0 LINE",
"304 340 LINE",
"284 332 LINE",
"399 0 LINE"
);
}
);
width = 557;
},
{
layerId = "4F25946F-63AC-42D6-8D55-01CF6A99025B";
paths = (
{
closed = 1;
nodes = (
"255 0 LINE",
"255 512 LINE",
"307 512 LINE SMOOTH",
"336 512 OFFCURVE",
"356 492 OFFCURVE",
"356 462 CURVE SMOOTH",
"356 432 OFFCURVE",
"336 412 OFFCURVE",
"307 412 CURVE SMOOTH",
"239 412 LINE",
"239 259 LINE",
"399 259 LINE SMOOTH",
"508 259 OFFCURVE",
"580 343 OFFCURVE",
"580 469 CURVE SMOOTH",
"580 608 OFFCURVE",
"496 700 OFFCURVE",
"369 700 CURVE SMOOTH",
"53 700 LINE",
"53 0 LINE"
);
},
{
closed = 1;
nodes = (
"595 0 LINE",
"422 320 LINE",
"206 320 LINE",
"357 0 LINE"
);
}
);
width = 607;
},
{
associatedMasterId = "4F25946F-63AC-42D6-8D55-01CF6A99025B";
layerId = "226A43B5-5CBD-42C7-8731-3A5BF7E3E8A0";
name = "Medium{91,100}";
paths = (
{
closed = 1;
nodes = (
"173 0 LINE",
"173 616 LINE",
"286 616 LINE SMOOTH",
"357 616 OFFCURVE",
"404 567 OFFCURVE",
"404 493 CURVE SMOOTH",
"404 419 OFFCURVE",
"357 370 OFFCURVE",
"286 370 CURVE SMOOTH",
"163 370 LINE",
"163 284 LINE",
"306 285 LINE SMOOTH",
"415 286 OFFCURVE",
"488 369 OFFCURVE",
"488 492 CURVE SMOOTH",
"488 619 OFFCURVE",
"411 700 OFFCURVE",
"295 700 CURVE SMOOTH",
"82 700 LINE",
"82 0 LINE"
);
},
{
closed = 1;
nodes = (
"462 0 LINE",
"332 332 LINE",
"238 327 LINE",
"356 0 LINE"
);
}
);
width = 541;
}
);
unicode = 0052;
},
{
color = 1;
glyphname = S;
lastChange = "2016-10-16 00:43:23 +0000";
layers = (
{
layerId = "262880E7-CFE1-4BDA-902E-E24798F3240A";
paths = (
{
closed = 1;
nodes = (
"364 -9 OFFCURVE",
"426 50 OFFCURVE",
"426 149 CURVE SMOOTH",
"426 255 OFFCURVE",
"354 306 OFFCURVE",
"271 361 CURVE SMOOTH",
"188 416 OFFCURVE",
"126 459 OFFCURVE",
"126 552 CURVE SMOOTH",
"126 636 OFFCURVE",
"178 690 OFFCURVE",
"262 690 CURVE SMOOTH",
"346 690 OFFCURVE",
"398 637 OFFCURVE",
"398 550 CURVE SMOOTH",
"398 500 LINE",
"420 500 LINE",
"420 550 LINE SMOOTH",
"420 650 OFFCURVE",
"360 709 OFFCURVE",
"262 709 CURVE SMOOTH",
"164 709 OFFCURVE",
"104 649 OFFCURVE",
"104 553 CURVE SMOOTH",
"104 446 OFFCURVE",
"179 394 OFFCURVE",
"257 342 CURVE SMOOTH",
"334 291 OFFCURVE",
"404 244 OFFCURVE",
"404 148 CURVE SMOOTH",
"404 63 OFFCURVE",
"350 11 OFFCURVE",
"263 11 CURVE SMOOTH",
"176 11 OFFCURVE",
"126 64 OFFCURVE",
"126 150 CURVE SMOOTH",
"126 210 LINE",
"106 210 LINE",
"106 150 LINE SMOOTH",
"106 50 OFFCURVE",
"163 -9 OFFCURVE",
"264 -9 CURVE SMOOTH"
);
}
);
width = 528;
},
{
layerId = "4F25946F-63AC-42D6-8D55-01CF6A99025B";
paths = (
{
closed = 1;
nodes = (
"436 -10 OFFCURVE",
"530 74 OFFCURVE",
"530 200 CURVE SMOOTH",
"530 312 OFFCURVE",
"456 381 OFFCURVE",
"343 425 CURVE SMOOTH",
"297 443 OFFCURVE",
"244 456 OFFCURVE",
"244 489 CURVE SMOOTH",
"244 503 OFFCURVE",
"254 518 OFFCURVE",
"278 518 CURVE SMOOTH",
"304 518 OFFCURVE",
"319 501 OFFCURVE",
"319 479 CURVE SMOOTH",
"319 464 LINE",
"531 474 LINE",
"531 479 LINE SMOOTH",
"531 617 OFFCURVE",
"424 710 OFFCURVE",
"272 710 CURVE SMOOTH",
"125 710 OFFCURVE",
"29 624 OFFCURVE",
"29 498 CURVE SMOOTH",
"29 389 OFFCURVE",
"102 318 OFFCURVE",
"216 275 CURVE SMOOTH",
"258 259 OFFCURVE",
"314 245 OFFCURVE",
"314 214 CURVE SMOOTH",
"314 201 OFFCURVE",
"305 182 OFFCURVE",
"279 182 CURVE SMOOTH",
"255 182 OFFCURVE",
"240 199 OFFCURVE",
"240 231 CURVE SMOOTH",
"240 236 LINE",
"17 226 LINE",
"17 221 LINE SMOOTH",
"17 83 OFFCURVE",
"123 -10 OFFCURVE",
"283 -10 CURVE SMOOTH"
);
}
);
width = 552;
}
);
unicode = 0053;
},
{
color = 1;
glyphname = T;
lastChange = "2016-10-16 00:43:23 +0000";
layers = (
{
layerId = "262880E7-CFE1-4BDA-902E-E24798F3240A";
paths = (
{
closed = 1;
nodes = (
"244 0 LINE",
"244 689 LINE",
"222 689 LINE",
"222 0 LINE"
);
},
{
closed = 1;
nodes = (
"398 679 LINE",
"398 700 LINE",
"76 700 LINE",
"76 679 LINE"
);
}
);
width = 474;
},
{
layerId = "4F25946F-63AC-42D6-8D55-01CF6A99025B";
paths = (
{
closed = 1;
nodes = (
"372 0 LINE",
"372 606 LINE",
"160 606 LINE",
"160 0 LINE"
);
},
{
closed = 1;
nodes = (
"520 500 LINE",
"520 700 LINE",
"12 700 LINE",
"12 500 LINE"
);
}
);
width = 532;
}
);
unicode = 0054;
},
{
color = 1;
glyphname = U;
lastChange = "2016-10-16 00:43:23 +0000";
layers = (
{
layerId = "262880E7-CFE1-4BDA-902E-E24798F3240A";
paths = (
{
closed = 1;
nodes = (
"388 -9 OFFCURVE",
"450 50 OFFCURVE",
"450 150 CURVE SMOOTH",
"450 700 LINE",
"428 700 LINE",
"428 150 LINE SMOOTH",
"428 64 OFFCURVE",
"376 11 OFFCURVE",
"289 11 CURVE SMOOTH",
"202 11 OFFCURVE",
"150 64 OFFCURVE",
"150 150 CURVE SMOOTH",
"150 700 LINE",
"128 700 LINE",
"128 150 LINE SMOOTH",
"128 50 OFFCURVE",
"190 -9 OFFCURVE",
"289 -9 CURVE SMOOTH"
);
}
);
width = 578;
},
{
layerId = "4F25946F-63AC-42D6-8D55-01CF6A99025B";
paths = (
{
closed = 1;
nodes = (
"453 -10 OFFCURVE",
"555 88 OFFCURVE",
"555 234 CURVE SMOOTH",
"555 700 LINE",
"343 700 LINE",
"343 234 LINE SMOOTH",
"343 200 OFFCURVE",
"325 178 OFFCURVE",
"299 178 CURVE SMOOTH",
"273 178 OFFCURVE",
"255 200 OFFCURVE",
"255 234 CURVE SMOOTH",
"255 700 LINE",
"43 700 LINE",
"43 234 LINE SMOOTH",
"43 88 OFFCURVE",
"145 -10 OFFCURVE",
"299 -10 CURVE SMOOTH"
);
}
);
width = 598;
}
);
unicode = 0055;
},
{
color = 1;
glyphname = V;
lastChange = "2016-10-16 00:43:24 +0000";
layers = (
{
layerId = "262880E7-CFE1-4BDA-902E-E24798F3240A";
paths = (
{
closed = 1;
nodes = (
"271 0 LINE",
"436 700 LINE",
"414 700 LINE",
"260 40 LINE",
"106 700 LINE",
"84 700 LINE",
"249 0 LINE"
);
}
);
width = 520;
},
{
layerId = "4F25946F-63AC-42D6-8D55-01CF6A99025B";
paths = (
{
closed = 1;
nodes = (
"386 0 LINE",
"556 700 LINE",
"341 700 LINE",
"280 300 LINE",
"219 700 LINE",
"4 700 LINE",
"174 0 LINE"
);
}
);
width = 560;
},
{
associatedMasterId = "262880E7-CFE1-4BDA-902E-E24798F3240A";
layerId = "4E067D8C-FFB4-48BF-AEBE-68DF3842147F";
name = "Medium {91,100}";
paths = (
{
closed = 1;
nodes = (
"299 0 LINE",
"465 700 LINE",
"370 700 LINE",
"251 147 LINE",
"133 700 LINE",
"37 700 LINE",
"204 0 LINE"
);
}
);
width = 503;
}
);
unicode = 0056;
},
{
color = 1;
glyphname = W;
lastChange = "2016-10-16 00:43:23 +0000";
layers = (
{
layerId = "262880E7-CFE1-4BDA-902E-E24798F3240A";
paths = (
{
closed = 1;
nodes = (
"234 0 LINE",
"348 648 LINE",
"462 0 LINE",
"484 0 LINE",
"609 700 LINE",
"587 700 LINE",
"473 52 LINE",
"359 700 LINE",
"337 700 LINE",
"223 52 LINE",
"109 700 LINE",
"87 700 LINE",
"212 0 LINE"
);
}
);
width = 696;
},
{
layerId = "4F25946F-63AC-42D6-8D55-01CF6A99025B";
paths = (
{
closed = 1;
nodes = (
"378 1 LINE",
"414 307 LINE",
"450 1 LINE",
"668 1 LINE",
"822 700 LINE",
"606 700 LINE",
"561 363 LINE",
"519 699 LINE",
"309 699 LINE",
"267 363 LINE",
"222 700 LINE",
"6 700 LINE",
"160 1 LINE"
);
}
);
width = 828;
},
{
associatedMasterId = "4F25946F-63AC-42D6-8D55-01CF6A99025B";
layerId = "11607437-4DCD-4C94-9EDA-1AD54BE1AE48";
name = "Medium { 91, 100}";
paths = (
{
closed = 1;
nodes = (
"272 0 LINE",
"356 528 LINE",
"441 0 LINE",
"534 0 LINE",
"670 700 LINE",
"577 700 LINE",
"491 160 LINE",
"404 700 LINE",
"308 700 LINE",
"222 160 LINE",
"135 700 LINE",
"42 700 LINE",
"179 0 LINE"
);
}
);
width = 713;
}
);
unicode = 0057;
},
{
color = 1;
glyphname = X;
lastChange = "2016-10-16 00:43:24 +0000";
layers = (
{
layerId = "262880E7-CFE1-4BDA-902E-E24798F3240A";
paths = (
{
closed = 1;
nodes = (
"394 700 LINE",
"251 376 LINE",
"108 700 LINE",
"85 700 LINE",
"240 350 LINE",
"85 0 LINE",
"108 0 LINE",
"251 324 LINE",
"394 0 LINE",
"417 0 LINE",
"263 350 LINE",
"417 700 LINE"
);
}
);
width = 502;
},
{
layerId = "4F25946F-63AC-42D6-8D55-01CF6A99025B";
paths = (
{
closed = 1;
nodes = (
"344 700 LINE",
"293 565 LINE",
"242 700 LINE",
"4 700 LINE",
"174 350 LINE",
"4 0 LINE",
"242 0 LINE",
"293 135 LINE",
"344 0 LINE",
"582 0 LINE",
"412 350 LINE",
"582 700 LINE"
);
}
);
width = 586;
},
{
associatedMasterId = "4F25946F-63AC-42D6-8D55-01CF6A99025B";
layerId = "A81EC77E-A514-41C1-A690-EF61EA7402F1";
name = "Bold Oct 15 16, 02:50";
paths = (
{
closed = 1;
nodes = (
"4 700 LINE",
"242 700 LINE",
"582 0 LINE",
"344 0 LINE"
);
},
{
closed = 1;
nodes = (
"344 700 LINE",
"582 700 LINE",
"242 0 LINE",
"4 0 LINE"
);
}
);
width = 586;
},
{
associatedMasterId = "262880E7-CFE1-4BDA-902E-E24798F3240A";
layerId = "F2B2385B-1C24-46F1-AB29-8D87B4EEE0C2";
name = "Light Oct 15 16, 02:50";
paths = (
{
closed = 1;
nodes = (
"59 700 LINE",
"82 700 LINE",
"391 0 LINE",
"368 0 LINE"
);
},
{
closed = 1;
nodes = (
"368 700 LINE",
"391 700 LINE",
"82 0 LINE",
"59 0 LINE"
);
}
);
width = 450;
}
);
unicode = 0058;
},
{
color = 1;
glyphname = Y;
lastChange = "2016-10-16 00:43:24 +0000";
layers = (
{
layerId = "262880E7-CFE1-4BDA-902E-E24798F3240A";
paths = (
{
closed = 1;
nodes = (
"413 700 LINE",
"388 700 LINE",
"246 379 LINE",
"105 700 LINE",
"79 700 LINE",
"246 328 LINE"
);
},
{
closed = 1;
nodes = (
"257 0 LINE",
"257 350 LINE",
"235 350 LINE",
"235 0 LINE"
);
}
);
width = 492;
},
{
layerId = "4F25946F-63AC-42D6-8D55-01CF6A99025B";
paths = (
{
closed = 1;
nodes = (
"636 700 LINE",
"410 700 LINE",
"323 479 LINE",
"235 700 LINE",
"-1 700 LINE",
"322 12 LINE"
);
},
{
closed = 1;
nodes = (
"430 0 LINE",
"430 350 LINE",
"214 350 LINE",
"214 0 LINE"
);
}
);
width = 635;
}
);
unicode = 0059;
},
{
color = 1;
glyphname = Z;
lastChange = "2016-10-16 00:43:23 +0000";
layers = (
{
layerId = "262880E7-CFE1-4BDA-902E-E24798F3240A";
paths = (
{
closed = 1;
nodes = (
"397 0 LINE",
"397 22 LINE",
"113 22 LINE",
"413 700 LINE",
"97 700 LINE",
"97 679 LINE",
"381 679 LINE",
"81 0 LINE"
);
}
);
width = 494;
},
{
layerId = "4F25946F-63AC-42D6-8D55-01CF6A99025B";
paths = (
{
closed = 1;
nodes = (
"485 0 LINE",
"485 198 LINE",
"295 198 LINE",
"485 700 LINE",
"20 700 LINE",
"20 502 LINE",
"215 502 LINE",
"17 0 LINE"
);
}
);
width = 504;
}
);
unicode = 005A;
},
{
color = 1;
glyphname = a;
lastChange = "2016-10-16 06:09:44 +0000";
layers = (
{
layerId = "262880E7-CFE1-4BDA-902E-E24798F3240A";
paths = (
{
closed = 1;
nodes = (
"348 -7 OFFCURVE",
"407 56 OFFCURVE",
"407 156 CURVE SMOOTH",
"407 344 LINE SMOOTH",
"407 444 OFFCURVE",
"348 507 OFFCURVE",
"252 507 CURVE SMOOTH",
"155 507 OFFCURVE",
"92 446 OFFCURVE",
"92 346 CURVE SMOOTH",
"92 154 LINE SMOOTH",
"92 54 OFFCURVE",
"155 -7 OFFCURVE",
"252 -7 CURVE SMOOTH"
);
},
{
closed = 1;
nodes = (
"166 15 OFFCURVE",
"114 68 OFFCURVE",
"114 154 CURVE SMOOTH",
"114 346 LINE SMOOTH",
"114 432 OFFCURVE",
"168 486 OFFCURVE",
"253 486 CURVE SMOOTH",
"338 486 OFFCURVE",
"392 432 OFFCURVE",
"392 346 CURVE SMOOTH",
"392 154 LINE SMOOTH",
"392 68 OFFCURVE",
"340 15 OFFCURVE",
"253 15 CURVE SMOOTH"
);
},
{
closed = 1;
nodes = (
"414 0 LINE",
"414 500 LINE",
"392 500 LINE",
"392 0 LINE"
);
}
);
width = 520;
},
{
layerId = "4F25946F-63AC-42D6-8D55-01CF6A99025B";
paths = (
{
closed = 1;
nodes = (
"326 -5 OFFCURVE",
"406 88 OFFCURVE",
"406 240 CURVE SMOOTH",
"406 254 LINE SMOOTH",
"406 411 OFFCURVE",
"326 504 OFFCURVE",
"196 504 CURVE",
"91 504 OFFCURVE",
"27 447 OFFCURVE",
"27 350 CURVE SMOOTH",
"27 160 LINE SMOOTH",
"27 59 OFFCURVE",
"91 -3 OFFCURVE",
"196 -4 CURVE SMOOTH"
);
},
{
closed = 1;
nodes = (
"252 165 OFFCURVE",
"235 181 OFFCURVE",
"235 206 CURVE SMOOTH",
"235 298 LINE SMOOTH",
"235 323 OFFCURVE",
"252 339 OFFCURVE",
"278 339 CURVE SMOOTH",
"304 339 OFFCURVE",
"322 323 OFFCURVE",
"322 298 CURVE SMOOTH",
"322 206 LINE SMOOTH",
"322 181 OFFCURVE",
"304 165 OFFCURVE",
"278 165 CURVE SMOOTH"
);
},
{
closed = 1;
nodes = (
"529 0 LINE",
"529 500 LINE",
"322 500 LINE",
"322 0 LINE"
);
}
);
width = 571;
},
{
associatedMasterId = "4F25946F-63AC-42D6-8D55-01CF6A99025B";
layerId = "47FC566B-2B97-4943-A9EB-638501BAD42D";
name = "DemiBold{119,100}";
paths = (
{
closed = 1;
nodes = (
"341 -6 OFFCURVE",
"411 72 OFFCURVE",
"411 196 CURVE SMOOTH",
"411 301 LINE SMOOTH",
"411 416 OFFCURVE",
"351 507 OFFCURVE",
"220 507 CURVE SMOOTH",
"113 507 OFFCURVE",
"46 447 OFFCURVE",
"46 348 CURVE SMOOTH",
"46 157 LINE SMOOTH",
"46 57 OFFCURVE",
"114 -6 OFFCURVE",
"221 -6 CURVE SMOOTH"
);
},
{
closed = 1;
nodes = (
"200 95 OFFCURVE",
"167 128 OFFCURVE",
"167 182 CURVE SMOOTH",
"167 320 LINE SMOOTH",
"167 374 OFFCURVE",
"200 407 OFFCURVE",
"255 407 CURVE SMOOTH",
"310 407 OFFCURVE",
"343 374 OFFCURVE",
"343 320 CURVE SMOOTH",
"343 182 LINE SMOOTH",
"343 128 OFFCURVE",
"310 95 OFFCURVE",
"255 95 CURVE SMOOTH"
);
},
{
closed = 1;
nodes = (
"464 0 LINE",
"464 500 LINE",
"343 500 LINE",
"343 0 LINE"
);
}
);
width = 524;
visible = 1;
}
);
unicode = 0061;
},
{
color = 1;
glyphname = b;
lastChange = "2016-10-16 06:13:40 +0000";
layers = (
{
layerId = "262880E7-CFE1-4BDA-902E-E24798F3240A";
paths = (
{
closed = 1;
nodes = (
"368 -7 OFFCURVE",
"428 54 OFFCURVE",
"428 154 CURVE SMOOTH",
"428 346 LINE SMOOTH",
"428 446 OFFCURVE",
"368 507 OFFCURVE",
"270 507 CURVE SMOOTH",
"172 507 OFFCURVE",
"108 444 OFFCURVE",
"108 344 CURVE SMOOTH",
"108 156 LINE SMOOTH",
"108 56 OFFCURVE",
"172 -7 OFFCURVE",
"270 -7 CURVE SMOOTH"
);
},
{
closed = 1;
nodes = (
"128 0 LINE",
"128 700 LINE",
"106 700 LINE",
"106 0 LINE"
);
},
{
closed = 1;
nodes = (
"181 15 OFFCURVE",
"128 68 OFFCURVE",
"128 154 CURVE SMOOTH",
"128 346 LINE SMOOTH",
"128 433 OFFCURVE",
"181 486 OFFCURVE",
"267 486 CURVE SMOOTH",
"353 486 OFFCURVE",
"406 433 OFFCURVE",
"406 346 CURVE SMOOTH",
"406 154 LINE SMOOTH",
"406 68 OFFCURVE",
"353 15 OFFCURVE",
"267 15 CURVE SMOOTH"
);
}
);
width = 521;
},
{
layerId = "4F25946F-63AC-42D6-8D55-01CF6A99025B";
paths = (
{
closed = 1;
nodes = (
"465 -3 OFFCURVE",
"529 59 OFFCURVE",
"529 160 CURVE SMOOTH",
"529 350 LINE SMOOTH",
"529 447 OFFCURVE",
"465 504 OFFCURVE",
"360 504 CURVE",
"230 504 OFFCURVE",
"150 411 OFFCURVE",
"150 254 CURVE SMOOTH",
"150 240 LINE SMOOTH",
"150 88 OFFCURVE",
"230 -5 OFFCURVE",
"360 -4 CURVE SMOOTH"
);
},
{
closed = 1;
nodes = (
"234 0 LINE",
"234 700 LINE",
"27 700 LINE",
"27 0 LINE"
);
},
{
closed = 1;
nodes = (
"252 165 OFFCURVE",
"234 181 OFFCURVE",
"234 206 CURVE SMOOTH",
"234 298 LINE SMOOTH",
"234 323 OFFCURVE",
"252 339 OFFCURVE",
"278 339 CURVE SMOOTH",
"304 339 OFFCURVE",
"321 323 OFFCURVE",
"321 298 CURVE SMOOTH",
"321 206 LINE SMOOTH",
"321 181 OFFCURVE",
"304 165 OFFCURVE",
"278 165 CURVE SMOOTH"
);
}
);
width = 570;
},
{
associatedMasterId = "4F25946F-63AC-42D6-8D55-01CF6A99025B";
layerId = "93BAF2E2-22D9-4221-A5AC-BC4294365A74";
name = "DemiBold {119,100}";
paths = (
{
closed = 1;
nodes = (
"407 -6 OFFCURVE",
"475 57 OFFCURVE",
"475 157 CURVE SMOOTH",
"475 348 LINE SMOOTH",
"475 447 OFFCURVE",
"408 507 OFFCURVE",
"301 507 CURVE SMOOTH",
"170 507 OFFCURVE",
"110 416 OFFCURVE",
"110 301 CURVE SMOOTH",
"110 196 LINE SMOOTH",
"110 72 OFFCURVE",
"180 -6 OFFCURVE",
"300 -6 CURVE SMOOTH"
);
},
{
closed = 1;
nodes = (
"178 -1 LINE",
"178 700 LINE",
"58 700 LINE",
"58 -1 LINE"
);
},
{
closed = 1;
nodes = (
"211 95 OFFCURVE",
"178 128 OFFCURVE",
"178 182 CURVE SMOOTH",
"178 320 LINE SMOOTH",
"178 374 OFFCURVE",
"211 407 OFFCURVE",
"266 407 CURVE SMOOTH",
"321 407 OFFCURVE",
"354 374 OFFCURVE",
"354 320 CURVE SMOOTH",
"354 182 LINE SMOOTH",
"354 128 OFFCURVE",
"321 95 OFFCURVE",
"266 95 CURVE SMOOTH"
);
}
);
width = 519;
}
);
unicode = 0062;
},
{
color = 1;
glyphname = c;
lastChange = "2016-10-16 00:43:22 +0000";
layers = (
{
layerId = "262880E7-CFE1-4BDA-902E-E24798F3240A";
paths = (
{
closed = 1;
nodes = (
"352 -5 OFFCURVE",
"414 54 OFFCURVE",
"414 154 CURVE SMOOTH",
"414 157 LINE",
"392 157 LINE",
"392 154 LINE SMOOTH",
"392 68 OFFCURVE",
"340 15 OFFCURVE",
"253 15 CURVE SMOOTH",
"166 15 OFFCURVE",
"114 68 OFFCURVE",
"114 154 CURVE SMOOTH",
"114 346 LINE SMOOTH",
"114 433 OFFCURVE",
"168 486 OFFCURVE",
"253 486 CURVE SMOOTH",
"338 486 OFFCURVE",
"392 433 OFFCURVE",
"392 346 CURVE SMOOTH",
"392 344 LINE",
"414 344 LINE",
"414 346 LINE SMOOTH",
"414 446 OFFCURVE",
"352 505 OFFCURVE",
"253 505 CURVE SMOOTH",
"154 505 OFFCURVE",
"92 446 OFFCURVE",
"92 346 CURVE SMOOTH",
"92 154 LINE SMOOTH",
"92 54 OFFCURVE",
"154 -5 OFFCURVE",
"253 -5 CURVE SMOOTH"
);
}
);
width = 488;
},
{
layerId = "4F25946F-63AC-42D6-8D55-01CF6A99025B";
paths = (
{
closed = 1;
nodes = (
"419 -8 OFFCURVE",
"514 80 OFFCURVE",
"524 231 CURVE",
"524 233 LINE",
"313 233 LINE",
"313 206 LINE SMOOTH",
"313 181 OFFCURVE",
"295 165 OFFCURVE",
"269 165 CURVE SMOOTH",
"243 165 OFFCURVE",
"226 181 OFFCURVE",
"226 206 CURVE",
"226 298 LINE",
"226 323 OFFCURVE",
"243 339 OFFCURVE",
"269 339 CURVE SMOOTH",
"295 339 OFFCURVE",
"313 323 OFFCURVE",
"313 298 CURVE",
"313 277 LINE",
"524 277 LINE",
"524 279 LINE",
"522 423 OFFCURVE",
"427 508 OFFCURVE",
"268 508 CURVE SMOOTH",
"108 508 OFFCURVE",
"14 415 OFFCURVE",
"14 256 CURVE SMOOTH",
"14 247 LINE SMOOTH",
"14 86 OFFCURVE",
"108 -8 OFFCURVE",
"267 -8 CURVE SMOOTH"
);
}
);
width = 537;
},
{
associatedMasterId = "4F25946F-63AC-42D6-8D55-01CF6A99025B";
layerId = "7B6958F8-F0D4-40F0-82E9-17D44A566858";
name = "DemiBold{119,100}";
paths = (
{
closed = 1;
nodes = (
"384 -9 OFFCURVE",
"456 60 OFFCURVE",
"461 195 CURVE SMOOTH",
"461 198 LINE",
"338 198 LINE",
"338 198 LINE SMOOTH",
"338 146 OFFCURVE",
"303 105 OFFCURVE",
"250 105 CURVE SMOOTH",
"197 105 OFFCURVE",
"162 146 OFFCURVE",
"162 198 CURVE SMOOTH",
"162 310 LINE SMOOTH",
"162 362 OFFCURVE",
"197 400 OFFCURVE",
"250 400 CURVE SMOOTH",
"303 400 OFFCURVE",
"338 362 OFFCURVE",
"338 310 CURVE SMOOTH",
"338 308 LINE",
"461 308 LINE",
"461 310 LINE SMOOTH",
"460 441 OFFCURVE",
"388 509 OFFCURVE",
"249 509 CURVE SMOOTH",
"110 509 OFFCURVE",
"39 437 OFFCURVE",
"39 298 CURVE SMOOTH",
"39 204 LINE SMOOTH",
"39 63 OFFCURVE",
"110 -9 OFFCURVE",
"249 -9 CURVE SMOOTH"
);
}
);
width = 492;
}
);
unicode = 0063;
},
{
color = 1;
glyphname = e;
lastChange = "2016-10-16 00:43:23 +0000";
layers = (
{
layerId = "262880E7-CFE1-4BDA-902E-E24798F3240A";
paths = (
{
closed = 1;
nodes = (
"352 -5 OFFCURVE",
"414 54 OFFCURVE",
"414 154 CURVE SMOOTH",
"414 158 LINE",
"392 158 LINE",
"392 154 LINE SMOOTH",
"392 68 OFFCURVE",
"340 15 OFFCURVE",
"253 15 CURVE SMOOTH",
"166 15 OFFCURVE",
"114 68 OFFCURVE",
"114 154 CURVE SMOOTH",
"114 346 LINE SMOOTH",
"114 433 OFFCURVE",
"168 486 OFFCURVE",
"253 486 CURVE SMOOTH",
"338 486 OFFCURVE",
"392 433 OFFCURVE",
"392 346 CURVE SMOOTH",
"392 261 LINE",
"109 261 LINE",
"109 240 LINE",
"414 240 LINE",
"414 346 LINE SMOOTH",
"414 446 OFFCURVE",
"352 505 OFFCURVE",
"253 505 CURVE SMOOTH",
"154 505 OFFCURVE",
"92 446 OFFCURVE",
"92 346 CURVE SMOOTH",
"92 154 LINE SMOOTH",
"92 54 OFFCURVE",
"154 -5 OFFCURVE",
"253 -5 CURVE SMOOTH"
);
}
);
width = 501;
},
{
layerId = "4F25946F-63AC-42D6-8D55-01CF6A99025B";
paths = (
{
closed = 1;
nodes = (
"418 -8 OFFCURVE",
"513 66 OFFCURVE",
"522 193 CURVE",
"522 193 LINE",
"322 193 LINE",
"322 193 LINE",
"318 164 OFFCURVE",
"294 152 OFFCURVE",
"268 152 CURVE SMOOTH",
"242 152 OFFCURVE",
"225 168 OFFCURVE",
"225 193 CURVE SMOOTH",
"225 318 LINE SMOOTH",
"225 343 OFFCURVE",
"242 359 OFFCURVE",
"268 359 CURVE SMOOTH",
"294 359 OFFCURVE",
"311 343 OFFCURVE",
"311 318 CURVE SMOOTH",
"311 289 LINE",
"208 289 LINE",
"208 236 LINE",
"522 236 LINE",
"522 262 LINE",
"520 417 OFFCURVE",
"426 508 OFFCURVE",
"267 508 CURVE SMOOTH",
"107 508 OFFCURVE",
"13 415 OFFCURVE",
"13 256 CURVE SMOOTH",
"13 247 LINE SMOOTH",
"13 86 OFFCURVE",
"107 -8 OFFCURVE",
"266 -8 CURVE SMOOTH"
);
}
);
width = 536;
},
{
associatedMasterId = "4F25946F-63AC-42D6-8D55-01CF6A99025B";
layerId = "A8631AE8-6F64-4109-B373-5711B024CF55";
name = "DemiBold {119,100}";
paths = (
{
closed = 1;
nodes = (
"377 -7 OFFCURVE",
"462 72 OFFCURVE",
"462 171 CURVE SMOOTH",
"462 172 LINE",
"344 172 LINE",
"344 168 LINE SMOOTH",
"344 128 OFFCURVE",
"310 101 OFFCURVE",
"251 101 CURVE SMOOTH",
"199 101 OFFCURVE",
"164 136 OFFCURVE",
"164 188 CURVE SMOOTH",
"164 319 LINE SMOOTH",
"164 371 OFFCURVE",
"199 406 OFFCURVE",
"251 406 CURVE SMOOTH",
"304 406 OFFCURVE",
"339 371 OFFCURVE",
"339 319 CURVE SMOOTH",
"339 290 LINE",
"152 290 LINE",
"152 211 LINE",
"462 211 LINE",
"462 301 LINE SMOOTH",
"462 425 OFFCURVE",
"378 507 OFFCURVE",
"251 507 CURVE SMOOTH",
"124 507 OFFCURVE",
"40 423 OFFCURVE",
"40 298 CURVE SMOOTH",
"40 204 LINE SMOOTH",
"40 77 OFFCURVE",
"124 -7 OFFCURVE",
"250 -7 CURVE SMOOTH"
);
}
);
width = 499;
visible = 1;
},
{
associatedMasterId = "4F25946F-63AC-42D6-8D55-01CF6A99025B";
layerId = "CC74BF32-15B1-4E75-BB5A-1121E9C29FAF";
name = "Regular{67, 100}";
paths = (
{
closed = 1;
nodes = (
"352 -6 OFFCURVE",
"422 52 OFFCURVE",
"422 146 CURVE SMOOTH",
"422 148 LINE",
"354 148 LINE",
"354 144 LINE SMOOTH",
"354 86 OFFCURVE",
"308 48 OFFCURVE",
"239 48 CURVE SMOOTH",
"169 48 OFFCURVE",
"123 94 OFFCURVE",
"123 164 CURVE SMOOTH",
"123 339 LINE SMOOTH",
"123 409 OFFCURVE",
"169 455 OFFCURVE",
"239 455 CURVE SMOOTH",
"308 455 OFFCURVE",
"354 409 OFFCURVE",
"354 339 CURVE SMOOTH",
"354 275 LINE",
"115 275 LINE",
"115 219 LINE",
"422 219 LINE",
"422 325 LINE SMOOTH",
"422 437 OFFCURVE",
"352 506 OFFCURVE",
"239 506 CURVE SMOOTH",
"125 506 OFFCURVE",
"55 437 OFFCURVE",
"55 324 CURVE SMOOTH",
"55 177 LINE SMOOTH",
"55 64 OFFCURVE",
"125 -6 OFFCURVE",
"238 -6 CURVE SMOOTH"
);
}
);
width = 473;
visible = 1;
}
);
unicode = 0065;
},
{
color = 1;
glyphname = f;
lastChange = "2016-10-16 00:43:23 +0000";
layers = (
{
layerId = "262880E7-CFE1-4BDA-902E-E24798F3240A";
paths = (
{
closed = 1;
nodes = (
"143 -1 LINE",
"143 550 LINE SMOOTH",
"143 637 OFFCURVE",
"196 690 OFFCURVE",
"282 690 CURVE",
"282 711 LINE",
"182 711 OFFCURVE",
"121 650 OFFCURVE",
"121 550 CURVE SMOOTH",
"121 -1 LINE"
);
},
{
closed = 1;
nodes = (
"252 479 LINE",
"252 500 LINE",
"52 500 LINE",
"52 479 LINE"
);
}
);
width = 304;
},
{
layerId = "4F25946F-63AC-42D6-8D55-01CF6A99025B";
paths = (
{
closed = 1;
nodes = (
"245 8 LINE",
"245 525 LINE",
"245 545 OFFCURVE",
"267 551 OFFCURVE",
"289 551 CURVE",
"289 693 LINE",
"149 700 OFFCURVE",
"60 690 OFFCURVE",
"60 549 CURVE",
"60 8 LINE"
);
},
{
closed = 1;
nodes = (
"307 326 LINE",
"307 500 LINE",
"14 500 LINE",
"14 326 LINE"
);
}
);
width = 313;
},
{
associatedMasterId = "4F25946F-63AC-42D6-8D55-01CF6A99025B";
layerId = "AF0A8C32-09C6-404E-AFE0-A8C575E5B58A";
name = "Medium{91,100}";
paths = (
{
closed = 1;
nodes = (
"179 2 LINE",
"179 550 LINE SMOOTH",
"179 616 OFFCURVE",
"225 630 OFFCURVE",
"280 630 CURVE",
"281 700 LINE",
"166 703 OFFCURVE",
"95 665 OFFCURVE",
"95 550 CURVE SMOOTH",
"95 2 LINE"
);
},
{
closed = 1;
nodes = (
"270 421 LINE",
"270 500 LINE",
"34 500 LINE",
"34 421 LINE"
);
}
);
width = 289;
}
);
unicode = 0066;
},
{
color = 1;
glyphname = g;
lastChange = "2016-10-16 06:12:20 +0000";
layers = (
{
layerId = "262880E7-CFE1-4BDA-902E-E24798F3240A";
paths = (
{
closed = 1;
nodes = (
"348 -5 OFFCURVE",
"407 56 OFFCURVE",
"407 156 CURVE SMOOTH",
"407 344 LINE SMOOTH",
"407 444 OFFCURVE",
"348 505 OFFCURVE",
"251 505 CURVE SMOOTH",
"152 505 OFFCURVE",
"92 445 OFFCURVE",
"92 346 CURVE SMOOTH",
"92 154 LINE SMOOTH",
"92 55 OFFCURVE",
"152 -5 OFFCURVE",
"251 -5 CURVE"
);
},
{
closed = 1;
nodes = (
"167 17 OFFCURVE",
"114 70 OFFCURVE",
"114 156 CURVE SMOOTH",
"114 344 LINE SMOOTH",
"114 431 OFFCURVE",
"167 484 OFFCURVE",
"253 484 CURVE SMOOTH",
"339 484 OFFCURVE",
"392 431 OFFCURVE",
"392 344 CURVE SMOOTH",
"392 156 LINE SMOOTH",
"392 70 OFFCURVE",
"339 17 OFFCURVE",
"253 17 CURVE SMOOTH"
);
},
{
closed = 1;
nodes = (
"353 -211 OFFCURVE",
"414 -150 OFFCURVE",
"414 -50 CURVE SMOOTH",
"414 500 LINE",
"392 500 LINE",
"392 -50 LINE SMOOTH",
"392 -137 OFFCURVE",
"339 -190 OFFCURVE",
"233 -190 CURVE",
"233 -211 LINE"
);
}
);
width = 520;
},
{
layerId = "4F25946F-63AC-42D6-8D55-01CF6A99025B";
paths = (
{
closed = 1;
nodes = (
"326 -5 OFFCURVE",
"406 88 OFFCURVE",
"406 240 CURVE SMOOTH",
"406 254 LINE SMOOTH",
"406 411 OFFCURVE",
"326 504 OFFCURVE",
"196 504 CURVE",
"91 504 OFFCURVE",
"27 447 OFFCURVE",
"27 350 CURVE SMOOTH",
"27 160 LINE SMOOTH",
"27 59 OFFCURVE",
"91 -3 OFFCURVE",
"196 -4 CURVE SMOOTH"
);
},
{
closed = 1;
nodes = (
"246 165 OFFCURVE",
"229 181 OFFCURVE",
"229 206 CURVE SMOOTH",
"229 298 LINE SMOOTH",
"229 323 OFFCURVE",
"246 339 OFFCURVE",
"272 339 CURVE SMOOTH",
"298 339 OFFCURVE",
"316 323 OFFCURVE",
"316 298 CURVE SMOOTH",
"316 206 LINE SMOOTH",
"316 181 OFFCURVE",
"298 165 OFFCURVE",
"272 165 CURVE SMOOTH"
);
},
{
closed = 1;
nodes = (
"461 -226 OFFCURVE",
"528 -115 OFFCURVE",
"528 34 CURVE SMOOTH",
"528 500 LINE",
"316 500 LINE",
"316 34 LINE SMOOTH",
"316 -14 OFFCURVE",
"299 -44 OFFCURVE",
"155 -36 CURVE",
"155 -207 LINE"
);
}
);
width = 570;
},
{
associatedMasterId = "4F25946F-63AC-42D6-8D55-01CF6A99025B";
layerId = "B6BF2724-269E-425D-BD22-36C93A6CFDCE";
name = "Medium {91, 100}";
paths = (
{
closed = 1;
nodes = (
"342 -6 OFFCURVE",
"410 74 OFFCURVE",
"410 192 CURVE SMOOTH",
"410 292 LINE SMOOTH",
"410 375 OFFCURVE",
"372 504 OFFCURVE",
"230 504 CURVE SMOOTH",
"133 504 OFFCURVE",
"53 445 OFFCURVE",
"53 348 CURVE SMOOTH",
"53 156 LINE SMOOTH",
"53 55 OFFCURVE",
"128 -4 OFFCURVE",
"226 -5 CURVE"
);
},
{
closed = 1;
nodes = (
"183 72 OFFCURVE",
"144 111 OFFCURVE",
"144 174 CURVE SMOOTH",
"144 326 LINE SMOOTH",
"144 389 OFFCURVE",
"183 428 OFFCURVE",
"247 428 CURVE SMOOTH",
"310 428 OFFCURVE",
"350 389 OFFCURVE",
"350 326 CURVE SMOOTH",
"350 174 LINE SMOOTH",
"350 111 OFFCURVE",
"310 72 OFFCURVE",
"247 72 CURVE SMOOTH"
);
},
{
closed = 1;
nodes = (
"380 -217 OFFCURVE",
"444 -137 OFFCURVE",
"444 -18 CURVE SMOOTH",
"444 500 LINE",
"350 500 LINE",
"350 -18 LINE SMOOTH",
"350 -90 OFFCURVE",
"310 -135 OFFCURVE",
"190 -131 CURVE",
"190 -209 LINE"
);
}
);
width = 509;
}
);
unicode = 0067;
},
{
color = 1;
glyphname = h;
lastChange = "2016-10-16 00:43:23 +0000";
layers = (
{
layerId = "262880E7-CFE1-4BDA-902E-E24798F3240A";
paths = (
{
closed = 1;
nodes = (
"428 0 LINE",
"428 346 LINE SMOOTH",
"428 446 OFFCURVE",
"366 505 OFFCURVE",
"269 505 CURVE SMOOTH",
"171 505 OFFCURVE",
"112 444 OFFCURVE",
"112 344 CURVE",
"128 344 LINE",
"128 431 OFFCURVE",
"182 484 OFFCURVE",
"267 484 CURVE SMOOTH",
"352 484 OFFCURVE",
"406 431 OFFCURVE",
"406 344 CURVE SMOOTH",
"406 0 LINE"
);
},
{
closed = 1;
nodes = (
"128 0 LINE",
"128 700 LINE",
"106 700 LINE",
"106 0 LINE"
);
}
);
width = 527;
},
{
layerId = "4F25946F-63AC-42D6-8D55-01CF6A99025B";
paths = (
{
closed = 1;
nodes = (
"544 0 LINE",
"544 350 LINE SMOOTH",
"544 441 OFFCURVE",
"493 510 OFFCURVE",
"377 510 CURVE SMOOTH",
"228 510 OFFCURVE",
"185 396 OFFCURVE",
"185 294 CURVE",
"250 294 LINE",
"250 321 OFFCURVE",
"267 339 OFFCURVE",
"293 339 CURVE SMOOTH",
"319 339 OFFCURVE",
"337 321 OFFCURVE",
"337 294 CURVE SMOOTH",
"337 0 LINE"
);
},
{
closed = 1;
nodes = (
"250 0 LINE",
"250 700 LINE",
"42 700 LINE",
"42 0 LINE"
);
}
);
width = 579;
},
{
associatedMasterId = "4F25946F-63AC-42D6-8D55-01CF6A99025B";
layerId = "6DA8EE20-322F-490D-912C-EA80E03ECB77";
name = "Medium {91, 100}";
paths = (
{
closed = 1;
nodes = (
"454 0 LINE",
"454 348 LINE SMOOTH",
"454 444 OFFCURVE",
"394 507 OFFCURVE",
"286 507 CURVE SMOOTH",
"173 507 OFFCURVE",
"112 437 OFFCURVE",
"112 326 CURVE",
"156 326 LINE",
"156 390 OFFCURVE",
"196 430 OFFCURVE",
"258 430 CURVE SMOOTH",
"321 430 OFFCURVE",
"361 390 OFFCURVE",
"361 326 CURVE SMOOTH",
"361 0 LINE"
);
},
{
closed = 1;
nodes = (
"156 0 LINE",
"156 700 LINE",
"63 700 LINE",
"63 0 LINE"
);
}
);
width = 511;
}
);
unicode = 0068;
},
{
color = 1;
glyphname = i;
lastChange = "2016-10-16 00:43:22 +0000";
layers = (
{
layerId = "262880E7-CFE1-4BDA-902E-E24798F3240A";
paths = (
{
closed = 1;
nodes = (
"128 -1 LINE",
"128 500 LINE",
"106 500 LINE",
"106 -1 LINE"
);
},
{
closed = 1;
nodes = (
"139 659 OFFCURVE",
"158 677 OFFCURVE",
"158 700 CURVE SMOOTH",
"158 722 OFFCURVE",
"139 740 OFFCURVE",
"117 740 CURVE SMOOTH",
"95 740 OFFCURVE",
"76 722 OFFCURVE",
"76 700 CURVE SMOOTH",
"76 677 OFFCURVE",
"94 659 OFFCURVE",
"117 659 CURVE SMOOTH"
);
}
);
width = 234;
},
{
layerId = "4F25946F-63AC-42D6-8D55-01CF6A99025B";
paths = (
{
closed = 1;
nodes = (
"250 0 LINE",
"250 500 LINE",
"42 500 LINE",
"42 0 LINE"
);
},
{
closed = 1;
nodes = (
"207 547 OFFCURVE",
"260 591 OFFCURVE",
"260 656 CURVE",
"260 715 OFFCURVE",
"207 763 OFFCURVE",
"146 763 CURVE SMOOTH",
"85 763 OFFCURVE",
"32 715 OFFCURVE",
"32 656 CURVE SMOOTH",
"32 595 OFFCURVE",
"83 547 OFFCURVE",
"146 547 CURVE SMOOTH"
);
}
);
width = 292;
}
);
unicode = 0069;
},
{
color = 1;
glyphname = j;
lastChange = "2016-10-16 00:43:23 +0000";
layers = (
{
layerId = "262880E7-CFE1-4BDA-902E-E24798F3240A";
paths = (
{
closed = 1;
nodes = (
"76 -211 OFFCURVE",
"128 -159 OFFCURVE",
"128 -74 CURVE SMOOTH",
"128 500 LINE",
"106 500 LINE",
"106 -74 LINE SMOOTH",
"106 -146 OFFCURVE",
"63 -190 OFFCURVE",
"-8 -190 CURVE",
"-8 -211 LINE"
);
},
{
closed = 1;
nodes = (
"142 659 OFFCURVE",
"158 675 OFFCURVE",
"158 700 CURVE SMOOTH",
"158 725 OFFCURVE",
"142 740 OFFCURVE",
"117 740 CURVE SMOOTH",
"92 740 OFFCURVE",
"76 725 OFFCURVE",
"76 700 CURVE SMOOTH",
"76 675 OFFCURVE",
"92 659 OFFCURVE",
"117 659 CURVE SMOOTH"
);
}
);
width = 234;
},
{
layerId = "4F25946F-63AC-42D6-8D55-01CF6A99025B";
paths = (
{
closed = 1;
nodes = (
"138 -236 OFFCURVE",
"251 -200 OFFCURVE",
"250 -39 CURVE",
"250 500 LINE",
"42 500 LINE",
"42 -8 LINE",
"42 -40 OFFCURVE",
"-12 -39 OFFCURVE",
"-45 -26 CURVE",
"-55 -201 LINE"
);
},
{
closed = 1;
nodes = (
"208 547 OFFCURVE",
"260 595 OFFCURVE",
"260 656 CURVE",
"260 715 OFFCURVE",
"208 763 OFFCURVE",
"146 763 CURVE SMOOTH",
"85 763 OFFCURVE",
"32 715 OFFCURVE",
"32 656 CURVE SMOOTH",
"32 595 OFFCURVE",
"83 547 OFFCURVE",
"146 547 CURVE SMOOTH"
);
}
);
width = 292;
}
);
unicode = 006A;
},
{
color = 1;
glyphname = k;
lastChange = "2016-10-16 00:43:22 +0000";
layers = (
{
layerId = "262880E7-CFE1-4BDA-902E-E24798F3240A";
paths = (
{
closed = 1;
nodes = (
"386 0 LINE",
"140 250 LINE",
"388 500 LINE",
"357 500 LINE",
"108 250 LINE",
"355 0 LINE"
);
},
{
closed = 1;
nodes = (
"128 1 LINE",
"129 700 LINE",
"107 700 LINE",
"106 1 LINE"
);
}
);
width = 442;
},
{
layerId = "4F25946F-63AC-42D6-8D55-01CF6A99025B";
paths = (
{
closed = 1;
nodes = (
"552 0 LINE",
"370 250 LINE",
"562 500 LINE",
"330 500 LINE",
"186 256 LINE",
"316 0 LINE"
);
},
{
closed = 1;
nodes = (
"230 0 LINE",
"231 700 LINE",
"43 700 LINE",
"42 0 LINE"
);
}
);
width = 554;
},
{
associatedMasterId = "4F25946F-63AC-42D6-8D55-01CF6A99025B";
layerId = "67D1648E-BAA1-4D62-B90C-A94E0FCB7E5A";
name = "DemiBold{119,100}";
paths = (
{
closed = 1;
nodes = (
"473 0 LINE",
"271 250 LINE",
"488 500 LINE",
"338 500 LINE",
"130 250 LINE",
"322 0 LINE"
);
},
{
closed = 1;
nodes = (
"178 0 LINE",
"179 700 LINE",
"58 700 LINE",
"57 0 LINE"
);
}
);
width = 490;
}
);
unicode = 006B;
},
{
color = 1;
glyphname = l;
lastChange = "2016-10-16 00:43:23 +0000";
layers = (
{
layerId = "262880E7-CFE1-4BDA-902E-E24798F3240A";
paths = (
{
closed = 1;
nodes = (
"128 -1 LINE",
"128 700 LINE",
"106 700 LINE",
"106 -1 LINE"
);
}
);
width = 234;
},
{
layerId = "4F25946F-63AC-42D6-8D55-01CF6A99025B";
paths = (
{
closed = 1;
nodes = (
"250 0 LINE",
"250 700 LINE",
"42 700 LINE",
"42 0 LINE"
);
}
);
width = 292;
}
);
unicode = 006C;
},
{
color = 1;
glyphname = m;
lastChange = "2016-10-16 00:43:23 +0000";
layers = (
{
layerId = "262880E7-CFE1-4BDA-902E-E24798F3240A";
paths = (
{
closed = 1;
nodes = (
"128 0 LINE",
"128 500 LINE",
"106 500 LINE",
"106 0 LINE"
);
},
{
closed = 1;
nodes = (
"418 0 LINE",
"418 345 LINE",
"418 445 OFFCURVE",
"357 506 OFFCURVE",
"263 506 CURVE SMOOTH",
"168 506 OFFCURVE",
"113 445 OFFCURVE",
"113 345 CURVE",
"128 345 LINE",
"128 432 OFFCURVE",
"179 485 OFFCURVE",
"262 485 CURVE SMOOTH",
"345 485 OFFCURVE",
"396 432 OFFCURVE",
"396 345 CURVE",
"396 0 LINE"
);
},
{
closed = 1;
nodes = (
"708 0 LINE",
"708 345 LINE SMOOTH",
"708 445 OFFCURVE",
"647 506 OFFCURVE",
"553 506 CURVE SMOOTH",
"458 506 OFFCURVE",
"403 445 OFFCURVE",
"403 345 CURVE",
"418 345 LINE",
"418 432 OFFCURVE",
"469 485 OFFCURVE",
"552 485 CURVE SMOOTH",
"635 485 OFFCURVE",
"686 432 OFFCURVE",
"686 345 CURVE SMOOTH",
"686 0 LINE"
);
}
);
width = 807;
},
{
layerId = "4F25946F-63AC-42D6-8D55-01CF6A99025B";
paths = (
{
closed = 1;
nodes = (
"250 0 LINE",
"250 500 LINE",
"42 500 LINE",
"42 0 LINE"
);
},
{
closed = 1;
nodes = (
"544 0 LINE",
"544 350 LINE SMOOTH",
"544 441 OFFCURVE",
"499 502 OFFCURVE",
"382 502 CURVE",
"234 502 OFFCURVE",
"185 387 OFFCURVE",
"185 286 CURVE",
"250 294 LINE",
"250 321 OFFCURVE",
"267 339 OFFCURVE",
"293 339 CURVE SMOOTH",
"319 339 OFFCURVE",
"337 321 OFFCURVE",
"337 294 CURVE SMOOTH",
"337 0 LINE"
);
},
{
closed = 1;
nodes = (
"838 0 LINE",
"838 350 LINE SMOOTH",
"838 441 OFFCURVE",
"790 502 OFFCURVE",
"672 502 CURVE",
"528 502 OFFCURVE",
"479 387 OFFCURVE",
"479 286 CURVE",
"544 294 LINE",
"544 321 OFFCURVE",
"561 339 OFFCURVE",
"587 339 CURVE SMOOTH",
"613 339 OFFCURVE",
"631 321 OFFCURVE",
"631 294 CURVE SMOOTH",
"631 0 LINE"
);
}
);
width = 873;
},
{
associatedMasterId = "4F25946F-63AC-42D6-8D55-01CF6A99025B";
layerId = "F5ED04A7-6D5C-4CB3-8E75-4B337E8B4478";
name = "Medium {91, 100}";
paths = (
{
closed = 1;
nodes = (
"158 0 LINE",
"158 500 LINE",
"66 500 LINE",
"66 0 LINE"
);
},
{
closed = 1;
nodes = (
"442 0 LINE",
"442 350 LINE SMOOTH",
"442 447 OFFCURVE",
"390.006 510 OFFCURVE",
"289 510 CURVE SMOOTH",
"177 510 OFFCURVE",
"120 440 OFFCURVE",
"120 336 CURVE",
"158 336 LINE",
"158 396 OFFCURVE",
"195 433 OFFCURVE",
"254 433 CURVE SMOOTH",
"313 433 OFFCURVE",
"350 396 OFFCURVE",
"350 336 CURVE SMOOTH",
"350 0 LINE"
);
},
{
closed = 1;
nodes = (
"726 0 LINE",
"726 350 LINE SMOOTH",
"726 447 OFFCURVE",
"674 510 OFFCURVE",
"573 510 CURVE SMOOTH",
"461 510 OFFCURVE",
"404 440 OFFCURVE",
"404 336 CURVE",
"442 336 LINE",
"442 396 OFFCURVE",
"479 433 OFFCURVE",
"538 433 CURVE SMOOTH",
"597 433 OFFCURVE",
"634 396 OFFCURVE",
"634 336 CURVE SMOOTH",
"634 0 LINE"
);
}
);
width = 773;
}
);
unicode = 006D;
},
{
color = 1;
glyphname = n;
lastChange = "2016-10-16 00:43:23 +0000";
layers = (
{
layerId = "262880E7-CFE1-4BDA-902E-E24798F3240A";
paths = (
{
closed = 1;
nodes = (
"428 0 LINE",
"428 344 LINE SMOOTH",
"428 444 OFFCURVE",
"367 504 OFFCURVE",
"268 504 CURVE SMOOTH",
"172 504 OFFCURVE",
"113 443 OFFCURVE",
"113 343 CURVE",
"128 343 LINE",
"128 430 OFFCURVE",
"181 483 OFFCURVE",
"267 483 CURVE SMOOTH",
"353 483 OFFCURVE",
"406 430 OFFCURVE",
"406 343 CURVE SMOOTH",
"406 0 LINE"
);
},
{
closed = 1;
nodes = (
"128 0 LINE",
"128 496 LINE",
"106 496 LINE",
"106 0 LINE"
);
}
);
width = 527;
},
{
layerId = "4F25946F-63AC-42D6-8D55-01CF6A99025B";
paths = (
{
closed = 1;
nodes = (
"544 0 LINE",
"544 350 LINE SMOOTH",
"544 441 OFFCURVE",
"499 502 OFFCURVE",
"382 502 CURVE",
"234 502 OFFCURVE",
"185 387 OFFCURVE",
"185 286 CURVE",
"250 294 LINE",
"250 321 OFFCURVE",
"267 339 OFFCURVE",
"293 339 CURVE SMOOTH",
"319 339 OFFCURVE",
"337 321 OFFCURVE",
"337 294 CURVE SMOOTH",
"337 0 LINE"
);
},
{
closed = 1;
nodes = (
"250 0 LINE",
"250 500 LINE",
"42 500 LINE",
"42 0 LINE"
);
}
);
width = 580;
},
{
associatedMasterId = "4F25946F-63AC-42D6-8D55-01CF6A99025B";
layerId = "48EED9EC-BBC9-457D-A249-2E4341C899C3";
name = "Medium {91, 100}";
paths = (
{
closed = 1;
nodes = (
"454 0 LINE",
"454 346 LINE SMOOTH",
"454 443 OFFCURVE",
"393 506 OFFCURVE",
"289 506 CURVE SMOOTH",
"171 506 OFFCURVE",
"103 425 OFFCURVE",
"103 325 CURVE",
"156 325 LINE",
"156 389 OFFCURVE",
"195 429 OFFCURVE",
"258 429 CURVE SMOOTH",
"322 429 OFFCURVE",
"361 389 OFFCURVE",
"361 325 CURVE SMOOTH",
"361 0 LINE"
);
},
{
closed = 1;
nodes = (
"156 0 LINE",
"156 498 LINE",
"63 498 LINE",
"63 0 LINE"
);
}
);
width = 511;
}
);
unicode = 006E;
},
{
color = 1;
glyphname = o;
lastChange = "2016-10-16 00:43:24 +0000";
layers = (
{
layerId = "262880E7-CFE1-4BDA-902E-E24798F3240A";
paths = (
{
closed = 1;
nodes = (
"353 -5 OFFCURVE",
"414 56 OFFCURVE",
"414 156 CURVE SMOOTH",
"414 344 LINE SMOOTH",
"414 444 OFFCURVE",
"353 505 OFFCURVE",
"253 505 CURVE SMOOTH",
"153 505 OFFCURVE",
"92 444 OFFCURVE",
"92 344 CURVE SMOOTH",
"92 156 LINE SMOOTH",
"92 56 OFFCURVE",
"153 -5 OFFCURVE",
"253 -5 CURVE SMOOTH"
);
},
{
closed = 1;
nodes = (
"167 17 OFFCURVE",
"114 70 OFFCURVE",
"114 156 CURVE SMOOTH",
"114 344 LINE SMOOTH",
"114 431 OFFCURVE",
"167 484 OFFCURVE",
"253 484 CURVE SMOOTH",
"339 484 OFFCURVE",
"392 431 OFFCURVE",
"392 344 CURVE SMOOTH",
"392 156 LINE SMOOTH",
"392 70 OFFCURVE",
"339 17 OFFCURVE",
"253 17 CURVE SMOOTH"
);
}
);
width = 506;
},
{
layerId = "4F25946F-63AC-42D6-8D55-01CF6A99025B";
paths = (
{
closed = 1;
nodes = (
"428 -8 OFFCURVE",
"523 86 OFFCURVE",
"523 247 CURVE",
"523 256 LINE",
"521 415 OFFCURVE",
"426 508 OFFCURVE",
"267 508 CURVE",
"107 508 OFFCURVE",
"13 415 OFFCURVE",
"13 256 CURVE",
"13 247 LINE",
"14 86 OFFCURVE",
"108 -8 OFFCURVE",
"267 -8 CURVE SMOOTH"
);
},
{
closed = 1;
nodes = (
"241 163 OFFCURVE",
"224 179 OFFCURVE",
"224 204 CURVE SMOOTH",
"224 296 LINE SMOOTH",
"224 321 OFFCURVE",
"241 337 OFFCURVE",
"267 337 CURVE SMOOTH",
"293 337 OFFCURVE",
"311 321 OFFCURVE",
"311 296 CURVE SMOOTH",
"311 204 LINE SMOOTH",
"311 179 OFFCURVE",
"293 163 OFFCURVE",
"267 163 CURVE SMOOTH"
);
}
);
width = 536;
},
{
associatedMasterId = "4F25946F-63AC-42D6-8D55-01CF6A99025B";
layerId = "2DFAB8E9-CF9C-42C7-AA48-DE050B873B35";
name = "Demibold{119,100}";
paths = (
{
closed = 1;
nodes = (
"380 -7 OFFCURVE",
"461 74 OFFCURVE",
"461 205 CURVE SMOOTH",
"461 297 LINE SMOOTH",
"460 427 OFFCURVE",
"379 507 OFFCURVE",
"249 507 CURVE SMOOTH",
"118 507 OFFCURVE",
"38 427 OFFCURVE",
"38 297 CURVE SMOOTH",
"38 205 LINE SMOOTH",
"39 74 OFFCURVE",
"119 -7 OFFCURVE",
"249 -7 CURVE SMOOTH"
);
},
{
closed = 1;
nodes = (
"196 103 OFFCURVE",
"161 138 OFFCURVE",
"161 190 CURVE SMOOTH",
"161 310 LINE SMOOTH",
"161 362 OFFCURVE",
"196 397 OFFCURVE",
"249 397 CURVE SMOOTH",
"302 397 OFFCURVE",
"337 362 OFFCURVE",
"337 310 CURVE SMOOTH",
"337 190 LINE SMOOTH",
"337 138 OFFCURVE",
"302 103 OFFCURVE",
"249 103 CURVE SMOOTH"
);
}
);
width = 499;
}
);
unicode = 006F;
},
{
color = 1;
glyphname = p;
lastChange = "2016-10-16 00:43:22 +0000";
layers = (
{
layerId = "262880E7-CFE1-4BDA-902E-E24798F3240A";
paths = (
{
closed = 1;
nodes = (
"368 -7 OFFCURVE",
"428 54 OFFCURVE",
"428 154 CURVE SMOOTH",
"428 346 LINE SMOOTH",
"428 446 OFFCURVE",
"368 507 OFFCURVE",
"270 507 CURVE SMOOTH",
"172 507 OFFCURVE",
"108 444 OFFCURVE",
"108 344 CURVE SMOOTH",
"108 156 LINE SMOOTH",
"108 56 OFFCURVE",
"172 -7 OFFCURVE",
"270 -7 CURVE SMOOTH"
);
},
{
closed = 1;
nodes = (
"128 -200 LINE",
"128 500 LINE",
"106 500 LINE",
"106 -200 LINE"
);
},
{
closed = 1;
nodes = (
"181 14 OFFCURVE",
"128 67 OFFCURVE",
"128 154 CURVE SMOOTH",
"128 346 LINE SMOOTH",
"128 432 OFFCURVE",
"181 485 OFFCURVE",
"267 485 CURVE SMOOTH",
"353 485 OFFCURVE",
"406 432 OFFCURVE",
"406 346 CURVE SMOOTH",
"406 154 LINE SMOOTH",
"406 67 OFFCURVE",
"353 14 OFFCURVE",
"267 14 CURVE SMOOTH"
);
}
);
width = 521;
},
{
layerId = "4F25946F-63AC-42D6-8D55-01CF6A99025B";
paths = (
{
closed = 1;
nodes = (
"480 -4 OFFCURVE",
"544 52 OFFCURVE",
"544 157 CURVE SMOOTH",
"544 347 LINE SMOOTH",
"544 441 OFFCURVE",
"469 504 OFFCURVE",
"356 504 CURVE",
"161 504 OFFCURVE",
"145 242 OFFCURVE",
"145 231 CURVE SMOOTH",
"145 217 LINE SMOOTH",
"145 117 OFFCURVE",
"236 -12 OFFCURVE",
"384 -7 CURVE SMOOTH"
);
},
{
closed = 1;
nodes = (
"250 -200 LINE",
"250 502 LINE",
"42 502 LINE",
"42 -200 LINE"
);
},
{
closed = 1;
nodes = (
"267 158 OFFCURVE",
"250 174 OFFCURVE",
"250 199 CURVE SMOOTH",
"250 291 LINE SMOOTH",
"250 316 OFFCURVE",
"267 332 OFFCURVE",
"293 332 CURVE SMOOTH",
"319 332 OFFCURVE",
"337 316 OFFCURVE",
"337 291 CURVE SMOOTH",
"337 199 LINE SMOOTH",
"337 174 OFFCURVE",
"319 158 OFFCURVE",
"293 158 CURVE SMOOTH"
);
}
);
width = 570;
}
);
unicode = 0070;
},
{
color = 1;
glyphname = r;
lastChange = "2016-10-16 00:43:24 +0000";
layers = (
{
layerId = "262880E7-CFE1-4BDA-902E-E24798F3240A";
paths = (
{
closed = 1;
nodes = (
"128 331 LINE",
"128 418 OFFCURVE",
"178 483 OFFCURVE",
"260 483 CURVE SMOOTH",
"270 483 OFFCURVE",
"287 479 OFFCURVE",
"296 475 CURVE",
"313 488 LINE",
"299 496 OFFCURVE",
"279 502 OFFCURVE",
"260 502 CURVE SMOOTH",
"165 502 OFFCURVE",
"112 429 OFFCURVE",
"112 331 CURVE"
);
},
{
closed = 1;
nodes = (
"128 -1 LINE",
"128 500 LINE",
"106 500 LINE",
"106 -1 LINE"
);
}
);
width = 364;
},
{
layerId = "4F25946F-63AC-42D6-8D55-01CF6A99025B";
paths = (
{
closed = 1;
nodes = (
"250 268 LINE",
"250 302 OFFCURVE",
"289 317 OFFCURVE",
"326 317 CURVE SMOOTH",
"344 317 OFFCURVE",
"379 310 OFFCURVE",
"384 301 CURVE",
"426 464 LINE",
"422 486 OFFCURVE",
"398 505 OFFCURVE",
"355 505 CURVE SMOOTH",
"240 505 OFFCURVE",
"186 382 OFFCURVE",
"186 268 CURVE"
);
},
{
closed = 1;
nodes = (
"250 0 LINE",
"250 500 LINE",
"42 500 LINE",
"42 0 LINE"
);
}
);
width = 425;
},
{
associatedMasterId = "262880E7-CFE1-4BDA-902E-E24798F3240A";
layerId = "42CC11FC-6CFD-42F7-A362-E84ACC39CCA1";
name = "Medium{91,100}";
paths = (
{
closed = 1;
nodes = (
"158 307 LINE",
"158 374 OFFCURVE",
"204 420 OFFCURVE",
"269 420 CURVE SMOOTH",
"282 420 OFFCURVE",
"306 415 OFFCURVE",
"313 409 CURVE",
"340 479 LINE",
"330 492 OFFCURVE",
"308 503 OFFCURVE",
"280 503 CURVE SMOOTH",
"177 503 OFFCURVE",
"104 411 OFFCURVE",
"104 307 CURVE"
);
},
{
closed = 1;
nodes = (
"158 -1 LINE",
"158 500 LINE",
"66 500 LINE",
"66 -1 LINE"
);
}
);
width = 361;
}
);
unicode = 0072;
},
{
color = 1;
glyphname = s;
lastChange = "2016-10-16 00:43:24 +0000";
layers = (
{
layerId = "262880E7-CFE1-4BDA-902E-E24798F3240A";
paths = (
{
closed = 1;
nodes = (
"334 -3 OFFCURVE",
"401 47 OFFCURVE",
"401 126 CURVE SMOOTH",
"401 214 OFFCURVE",
"317 237 OFFCURVE",
"237 265 CURVE SMOOTH",
"148 296 OFFCURVE",
"99 311 OFFCURVE",
"99 372 CURVE SMOOTH",
"99 437 OFFCURVE",
"155 484 OFFCURVE",
"238 484 CURVE SMOOTH",
"321 484 OFFCURVE",
"377 438 OFFCURVE",
"377 369 CURVE SMOOTH",
"377 368 LINE",
"399 368 LINE",
"399 369 LINE SMOOTH",
"399 451 OFFCURVE",
"335 503 OFFCURVE",
"238 503 CURVE SMOOTH",
"141 503 OFFCURVE",
"77 450 OFFCURVE",
"77 372 CURVE SMOOTH",
"77 290 OFFCURVE",
"148 271 OFFCURVE",
"233 241 CURVE SMOOTH",
"309 214 OFFCURVE",
"379 196 OFFCURVE",
"379 126 CURVE SMOOTH",
"379 61 OFFCURVE",
"320 17 OFFCURVE",
"236 17 CURVE SMOOTH",
"152 17 OFFCURVE",
"97 60 OFFCURVE",
"97 126 CURVE SMOOTH",
"97 127 LINE",
"75 127 LINE",
"75 126 LINE SMOOTH",
"75 48 OFFCURVE",
"138 -3 OFFCURVE",
"236 -3 CURVE SMOOTH"
);
}
);
width = 476;
},
{
layerId = "4F25946F-63AC-42D6-8D55-01CF6A99025B";
paths = (
{
closed = 1;
nodes = (
"404 -10 OFFCURVE",
"489 62 OFFCURVE",
"489 151 CURVE SMOOTH",
"489 216 OFFCURVE",
"444 270 OFFCURVE",
"353 296 CURVE SMOOTH",
"293 313 OFFCURVE",
"217 318 OFFCURVE",
"217 351 CURVE SMOOTH",
"217 364 OFFCURVE",
"230 378 OFFCURVE",
"250 378 CURVE SMOOTH",
"270 378 OFFCURVE",
"286 364 OFFCURVE",
"286 341 CURVE",
"287 331 LINE",
"481 331 LINE",
"481 341 LINE",
"477 439 OFFCURVE",
"392 510 OFFCURVE",
"246 510 CURVE SMOOTH",
"98 510 OFFCURVE",
"14 437 OFFCURVE",
"14 353 CURVE SMOOTH",
"14 292 OFFCURVE",
"58 235 OFFCURVE",
"152 208 CURVE SMOOTH",
"208 192 OFFCURVE",
"280 187 OFFCURVE",
"280 149 CURVE SMOOTH",
"280 136 OFFCURVE",
"272 123 OFFCURVE",
"250 123 CURVE SMOOTH",
"231 123 OFFCURVE",
"216 133 OFFCURVE",
"212 155 CURVE SMOOTH",
"209 172 LINE",
"13 172 LINE",
"13 162 LINE",
"13 66 OFFCURVE",
"104 -10 OFFCURVE",
"256 -10 CURVE SMOOTH"
);
}
);
width = 500;
},
{
associatedMasterId = "262880E7-CFE1-4BDA-902E-E24798F3240A";
layerId = "677A5083-0B4E-4805-9AE1-F115960A3564";
name = "Semi Bold{101, 100}";
paths = (
{
closed = 1;
nodes = (
"337 -10 OFFCURVE",
"408 51 OFFCURVE",
"408 137 CURVE SMOOTH",
"408 213 OFFCURVE",
"353 258 OFFCURVE",
"269 286 CURVE SMOOTH",
"210 306 OFFCURVE",
"142 313 OFFCURVE",
"142 363 CURVE SMOOTH",
"142 395 OFFCURVE",
"171 424 OFFCURVE",
"218 424 CURVE SMOOTH",
"263 424 OFFCURVE",
"295 399 OFFCURVE",
"296 358 CURVE SMOOTH",
"296 352 LINE",
"403 352 LINE",
"403 358 LINE SMOOTH",
"403 446 OFFCURVE",
"332 510 OFFCURVE",
"217 510 CURVE SMOOTH",
"102 510 OFFCURVE",
"33 447 OFFCURVE",
"33 363 CURVE SMOOTH",
"33 291 OFFCURVE",
"85 248 OFFCURVE",
"169 219 CURVE SMOOTH",
"227 199 OFFCURVE",
"295 189 OFFCURVE",
"295 137 CURVE SMOOTH",
"295 100 OFFCURVE",
"262 75 OFFCURVE",
"217 75 CURVE SMOOTH",
"171 75 OFFCURVE",
"141 100 OFFCURVE",
"141 137 CURVE SMOOTH",
"141 146 LINE",
"31 146 LINE",
"31 141 LINE SMOOTH",
"31 54 OFFCURVE",
"104 -10 OFFCURVE",
"222 -10 CURVE SMOOTH"
);
}
);
width = 439;
}
);
unicode = 0073;
},
{
color = 1;
glyphname = t;
lastChange = "2016-10-16 00:43:23 +0000";
layers = (
{
layerId = "262880E7-CFE1-4BDA-902E-E24798F3240A";
paths = (
{
closed = 1;
nodes = (
"265 2 LINE",
"265 24 LINE",
"241 24 LINE SMOOTH",
"160 24 OFFCURVE",
"137 59 OFFCURVE",
"137 155 CURVE SMOOTH",
"137 479 LINE",
"251 479 LINE",
"251 500 LINE",
"137 500 LINE",
"137 610 LINE",
"115 610 LINE",
"115 500 LINE",
"51 500 LINE",
"51 479 LINE",
"115 479 LINE",
"115 155 LINE SMOOTH",
"115 45 OFFCURVE",
"147 2 OFFCURVE",
"241 2 CURVE SMOOTH"
);
}
);
width = 320;
},
{
layerId = "4F25946F-63AC-42D6-8D55-01CF6A99025B";
paths = (
{
closed = 1;
nodes = (
"307 1 LINE",
"313 181 LINE",
"310 181 LINE",
"272 177 OFFCURVE",
"250 172 OFFCURVE",
"250 203 CURVE SMOOTH",
"250 326 LINE",
"330 326 LINE",
"330 500 LINE",
"250 500 LINE",
"250 700 LINE",
"56 700 LINE",
"56 500 LINE",
"12 500 LINE",
"12 326 LINE",
"56 326 LINE",
"56 163 LINE SMOOTH",
"56 3 OFFCURVE",
"119 -24 OFFCURVE",
"301 1 CURVE"
);
}
);
width = 351;
}
);
unicode = 0074;
},
{
color = 1;
glyphname = u;
lastChange = "2016-10-16 00:43:24 +0000";
layers = (
{
layerId = "262880E7-CFE1-4BDA-902E-E24798F3240A";
paths = (
{
closed = 1;
nodes = (
"357 -3 OFFCURVE",
"416 58 OFFCURVE",
"416 157 CURVE",
"399 157 LINE",
"399 70 OFFCURVE",
"346 17 OFFCURVE",
"260 17 CURVE SMOOTH",
"174 17 OFFCURVE",
"121 70 OFFCURVE",
"121 157 CURVE SMOOTH",
"121 500 LINE",
"99 500 LINE",
"99 156 LINE SMOOTH",
"99 57 OFFCURVE",
"160 -3 OFFCURVE",
"260 -3 CURVE SMOOTH"
);
},
{
closed = 1;
nodes = (
"421 0 LINE",
"421 500 LINE",
"399 500 LINE",
"399 0 LINE"
);
}
);
width = 527;
},
{
layerId = "4F25946F-63AC-42D6-8D55-01CF6A99025B";
paths = (
{
closed = 1;
nodes = (
"349 -2 OFFCURVE",
"396 96 OFFCURVE",
"396 196 CURVE",
"331 188 LINE",
"331 165 OFFCURVE",
"313 150 OFFCURVE",
"287 150 CURVE SMOOTH",
"261 150 OFFCURVE",
"244 165 OFFCURVE",
"244 188 CURVE SMOOTH",
"244 500 LINE",
"36 500 LINE",
"36 150 LINE SMOOTH",
"36 49 OFFCURVE",
"85 -2 OFFCURVE",
"196 -2 CURVE SMOOTH"
);
},
{
closed = 1;
nodes = (
"538 0 LINE",
"538 500 LINE",
"331 500 LINE",
"331 0 LINE"
);
}
);
width = 580;
},
{
associatedMasterId = "4F25946F-63AC-42D6-8D55-01CF6A99025B";
layerId = "47FA07B0-C6A0-4AEE-ADEB-F55ADBF433D4";
name = "Medium{91,100}";
paths = (
{
closed = 1;
nodes = (
"338 -6 OFFCURVE",
"402 64 OFFCURVE",
"402 168 CURVE",
"356 168 LINE",
"356 107 OFFCURVE",
"315 67 OFFCURVE",
"253 67 CURVE SMOOTH",
"192 67 OFFCURVE",
"151 107 OFFCURVE",
"151 168 CURVE SMOOTH",
"151 500 LINE",
"58 500 LINE",
"58 154 LINE SMOOTH",
"58 58 OFFCURVE",
"132 -6 OFFCURVE",
"243 -6 CURVE SMOOTH"
);
},
{
closed = 1;
nodes = (
"449 0 LINE",
"449 500 LINE",
"356 500 LINE",
"356 0 LINE"
);
}
);
width = 512;
}
);
unicode = 0075;
},
{
color = 1;
glyphname = v;
lastChange = "2016-10-16 00:43:23 +0000";
layers = (
{
layerId = "262880E7-CFE1-4BDA-902E-E24798F3240A";
paths = (
{
closed = 1;
nodes = (
"245 3 LINE",
"410 500 LINE",
"388 500 LINE",
"234 38 LINE",
"80 500 LINE",
"58 500 LINE",
"223 3 LINE"
);
}
);
width = 468;
},
{
layerId = "4F25946F-63AC-42D6-8D55-01CF6A99025B";
paths = (
{
closed = 1;
nodes = (
"350 0 LINE",
"514 500 LINE",
"303 500 LINE",
"254 257 LINE",
"205 500 LINE",
"-6 500 LINE",
"158 0 LINE"
);
}
);
width = 508;
},
{
associatedMasterId = "262880E7-CFE1-4BDA-902E-E24798F3240A";
layerId = "30C42329-3409-4879-A8EC-0B65B1A31C66";
name = "Medium { 91, 100}";
paths = (
{
closed = 1;
nodes = (
"266 0 LINE",
"423 500 LINE",
"330 500 LINE",
"222 129 LINE",
"114 500 LINE",
"22 500 LINE",
"179 0 LINE"
);
}
);
width = 445;
}
);
unicode = 0076;
},
{
color = 1;
glyphname = w;
lastChange = "2016-10-16 00:43:23 +0000";
layers = (
{
layerId = "262880E7-CFE1-4BDA-902E-E24798F3240A";
paths = (
{
closed = 1;
nodes = (
"217 0 LINE",
"341 458 LINE",
"465 0 LINE",
"487 0 LINE",
"622 500 LINE",
"600 500 LINE",
"476 42 LINE",
"352 500 LINE",
"330 500 LINE",
"206 42 LINE",
"82 500 LINE",
"60 500 LINE",
"195 0 LINE"
);
}
);
width = 682;
},
{
layerId = "4F25946F-63AC-42D6-8D55-01CF6A99025B";
paths = (
{
closed = 1;
nodes = (
"308 0 LINE",
"341 240 LINE",
"378 0 LINE",
"568 0 LINE",
"688 500 LINE",
"494 500 LINE",
"461 287 LINE",
"425 500 LINE",
"255 500 LINE",
"220 287 LINE",
"185 500 LINE",
"-2 500 LINE",
"117 0 LINE"
);
}
);
width = 686;
}
);
unicode = 0077;
},
{
color = 1;
glyphname = x;
lastChange = "2016-10-16 00:43:23 +0000";
layers = (
{
layerId = "262880E7-CFE1-4BDA-902E-E24798F3240A";
paths = (
{
closed = 1;
nodes = (
"387 501 LINE",
"233 267 LINE",
"79 501 LINE",
"57 501 LINE",
"222 250 LINE",
"57 -1 LINE",
"79 -1 LINE",
"233 233 LINE",
"387 -1 LINE",
"409 -1 LINE",
"244 250 LINE",
"409 501 LINE"
);
}
);
width = 466;
},
{
layerId = "4F25946F-63AC-42D6-8D55-01CF6A99025B";
paths = (
{
closed = 1;
nodes = (
"306 500 LINE",
"261 411 LINE",
"217 500 LINE",
"-5 500 LINE",
"153 250 LINE",
"-5 0 LINE",
"217 0 LINE",
"261 89 LINE",
"306 0 LINE",
"527 0 LINE",
"370 250 LINE",
"527 500 LINE"
);
}
);
width = 522;
},
{
associatedMasterId = "262880E7-CFE1-4BDA-902E-E24798F3240A";
layerId = "A7F0FF68-370D-4ABA-A088-97B4F33DE289";
name = "Light Oct 15 16, 02:53";
paths = (
{
closed = 1;
nodes = (
"368 501 LINE",
"390 501 LINE",
"60 -1 LINE",
"38 -1 LINE"
);
},
{
closed = 1;
nodes = (
"38 501 LINE",
"60 501 LINE",
"390 -1 LINE",
"368 -1 LINE"
);
}
);
width = 428;
},
{
associatedMasterId = "4F25946F-63AC-42D6-8D55-01CF6A99025B";
layerId = "C8E6816F-D14D-432C-92C0-4654658DD355";
name = "Bold Oct 15 16, 02:53";
paths = (
{
closed = 1;
nodes = (
"306 500 LINE",
"527 500 LINE",
"217 0 LINE",
"-5 0 LINE"
);
},
{
closed = 1;
nodes = (
"-5 500 LINE",
"217 500 LINE",
"527 0 LINE",
"306 0 LINE"
);
}
);
width = 522;
}
);
unicode = 0078;
},
{
color = 1;
glyphname = y;
lastChange = "2016-10-16 00:43:23 +0000";
layers = (
{
layerId = "262880E7-CFE1-4BDA-902E-E24798F3240A";
paths = (
{
closed = 1;
nodes = (
"154 -211 OFFCURVE",
"189 -174 OFFCURVE",
"222 -73 CURVE",
"412 500 LINE",
"390 500 LINE",
"202 -67 LINE SMOOTH",
"171 -160 OFFCURVE",
"142 -190 OFFCURVE",
"86 -190 CURVE",
"86 -211 LINE"
);
},
{
closed = 1;
nodes = (
"237 28 LINE",
"80 500 LINE",
"58 500 LINE",
"226 -7 LINE"
);
}
);
width = 470;
},
{
layerId = "4F25946F-63AC-42D6-8D55-01CF6A99025B";
paths = (
{
closed = 1;
nodes = (
"203 -161 OFFCURVE",
"248 -140 OFFCURVE",
"306 16 CURVE SMOOTH",
"487 500 LINE",
"286 500 LINE",
"145 82 LINE SMOOTH",
"127 28 OFFCURVE",
"109 11 OFFCURVE",
"59 18 CURVE",
"59 -140 LINE"
);
},
{
closed = 1;
nodes = (
"310 141 LINE",
"194 500 LINE",
"-8 500 LINE",
"202 -7 LINE"
);
}
);
width = 480;
}
);
unicode = 0079;
},
{
color = 1;
glyphname = z;
lastChange = "2016-10-16 00:43:22 +0000";
layers = (
{
layerId = "262880E7-CFE1-4BDA-902E-E24798F3240A";
paths = (
{
closed = 1;
nodes = (
"374 1 LINE",
"374 23 LINE",
"95 23 LINE",
"385 499 LINE",
"65 499 LINE",
"65 478 LINE",
"347 478 LINE",
"57 1 LINE"
);
}
);
width = 442;
},
{
layerId = "4F25946F-63AC-42D6-8D55-01CF6A99025B";
paths = (
{
closed = 1;
nodes = (
"488 0 LINE",
"488 208 LINE",
"327 208 LINE",
"502 500 LINE",
"37 500 LINE",
"37 292 LINE",
"192 292 LINE",
"21 0 LINE"
);
}
);
width = 511;
},
{
associatedMasterId = "4F25946F-63AC-42D6-8D55-01CF6A99025B";
layerId = "516F1C78-99C1-4D19-A6A1-804BC5CB958E";
name = "Demibold {119,100}";
paths = (
{
closed = 1;
nodes = (
"426 0 LINE",
"426 122 LINE",
"222 122 LINE",
"439 500 LINE",
"41 500 LINE",
"41 378 LINE",
"244 378 LINE",
"16 0 LINE"
);
}
);
width = 461;
}
);
unicode = 007A;
},
{
color = 1;
glyphname = zero;
lastChange = "2016-10-16 00:43:24 +0000";
layers = (
{
layerId = "262880E7-CFE1-4BDA-902E-E24798F3240A";
paths = (
{
closed = 1;
nodes = (
"384 -9 OFFCURVE",
"439 45 OFFCURVE",
"439 150 CURVE SMOOTH",
"439 550 LINE SMOOTH",
"439 655 OFFCURVE",
"384 709 OFFCURVE",
"279 709 CURVE SMOOTH",
"174 709 OFFCURVE",
"119 655 OFFCURVE",
"119 550 CURVE SMOOTH",
"119 150 LINE SMOOTH",
"119 45 OFFCURVE",
"174 -9 OFFCURVE",
"279 -9 CURVE SMOOTH"
);
},
{
closed = 1;
nodes = (
"188 11 OFFCURVE",
"141 58 OFFCURVE",
"141 150 CURVE SMOOTH",
"141 550 LINE SMOOTH",
"141 642 OFFCURVE",
"188 690 OFFCURVE",
"279 690 CURVE SMOOTH",
"370 690 OFFCURVE",
"417 642 OFFCURVE",
"417 550 CURVE SMOOTH",
"417 150 LINE SMOOTH",
"417 58 OFFCURVE",
"370 11 OFFCURVE",
"279 11 CURVE SMOOTH"
);
}
);
width = 558;
},
{
layerId = "4F25946F-63AC-42D6-8D55-01CF6A99025B";
paths = (
{
closed = 1;
nodes = (
"464 -10 OFFCURVE",
"552 73 OFFCURVE",
"552 233 CURVE SMOOTH",
"552 467 LINE SMOOTH",
"552 627 OFFCURVE",
"464 710 OFFCURVE",
"292 710 CURVE SMOOTH",
"120 710 OFFCURVE",
"32 627 OFFCURVE",
"32 467 CURVE SMOOTH",
"32 233 LINE SMOOTH",
"32 73 OFFCURVE",
"120 -10 OFFCURVE",
"292 -10 CURVE SMOOTH"
);
},
{
closed = 1;
nodes = (
"263 174 OFFCURVE",
"244 194 OFFCURVE",
"244 223 CURVE SMOOTH",
"244 477 LINE SMOOTH",
"244 506 OFFCURVE",
"263 526 OFFCURVE",
"292 526 CURVE SMOOTH",
"321 526 OFFCURVE",
"340 506 OFFCURVE",
"340 477 CURVE SMOOTH",
"340 223 LINE SMOOTH",
"340 194 OFFCURVE",
"321 174 OFFCURVE",
"292 174 CURVE SMOOTH"
);
}
);
width = 584;
}
);
unicode = 0030;
},
{
color = 1;
glyphname = one;
lastChange = "2016-10-16 00:43:23 +0000";
layers = (
{
layerId = "4F25946F-63AC-42D6-8D55-01CF6A99025B";
paths = (
{
closed = 1;
nodes = (
"283 0 LINE",
"283 700 LINE",
"71 700 LINE",
"71 0 LINE"
);
},
{
closed = 1;
nodes = (
"8 512 LINE",
"71 512 LINE",
"71 700 LINE",
"8 674 LINE"
);
}
);
width = 334;
},
{
layerId = "262880E7-CFE1-4BDA-902E-E24798F3240A";
paths = (
{
closed = 1;
nodes = (
"152 0 LINE",
"152 700 LINE",
"130 700 LINE",
"130 0 LINE"
);
},
{
closed = 1;
nodes = (
"89 646 LINE",
"130 662 LINE",
"130 700 LINE",
"89 668 LINE"
);
}
);
width = 280;
}
);
unicode = 0031;
},
{
color = 1;
glyphname = two;
lastChange = "2016-10-16 00:43:24 +0000";
layers = (
{
layerId = "4F25946F-63AC-42D6-8D55-01CF6A99025B";
paths = (
{
closed = 1;
nodes = (
"522 0 LINE",
"522 188 LINE",
"275 188 LINE",
"506 447 LINE",
"523 475 OFFCURVE",
"534 500 OFFCURVE",
"534 534 CURVE SMOOTH",
"534 633 OFFCURVE",
"439 700 OFFCURVE",
"282 700 CURVE SMOOTH",
"123 700 OFFCURVE",
"22 631 OFFCURVE",
"22 519 CURVE",
"22 454 LINE",
"230 455 LINE",
"230 481 LINE",
"230 506 OFFCURVE",
"247 523 OFFCURVE",
"272 523 CURVE SMOOTH",
"300 523 OFFCURVE",
"312 502 OFFCURVE",
"312 489 CURVE SMOOTH",
"312 474 OFFCURVE",
"298 455 OFFCURVE",
"273 426 CURVE",
"25 171 LINE",
"25 0 LINE"
);
}
);
width = 553;
},
{
layerId = "262880E7-CFE1-4BDA-902E-E24798F3240A";
paths = (
{
closed = 1;
nodes = (
"419 0 LINE",
"419 22 LINE",
"116 22 LINE",
"356 364 LINE SMOOTH",
"394 419 OFFCURVE",
"418 470 OFFCURVE",
"418 530 CURVE SMOOTH",
"418 615 OFFCURVE",
"369 710 OFFCURVE",
"255 710 CURVE SMOOTH",
"150 710 OFFCURVE",
"87 635 OFFCURVE",
"87 500 CURVE",
"87 479 LINE",
"108 479 LINE",
"108 500 LINE SMOOTH",
"108 618 OFFCURVE",
"163 690 OFFCURVE",
"254 690 CURVE SMOOTH",
"342 690 OFFCURVE",
"397 622 OFFCURVE",
"397 530 CURVE SMOOTH",
"397 478 OFFCURVE",
"379 434 OFFCURVE",
"351 395 CURVE SMOOTH",
"88 21 LINE",
"87 0 LINE"
);
}
);
width = 508;
}
);
unicode = 0032;
},
{
color = 1;
glyphname = eight;
lastChange = "2016-10-16 00:43:23 +0000";
layers = (
{
layerId = "262880E7-CFE1-4BDA-902E-E24798F3240A";
paths = (
{
closed = 1;
nodes = (
"376 364 OFFCURVE",
"431 418 OFFCURVE",
"431 523 CURVE SMOOTH",
"431 548 LINE SMOOTH",
"431 653 OFFCURVE",
"376 707 OFFCURVE",
"271 707 CURVE SMOOTH",
"166 707 OFFCURVE",
"111 653 OFFCURVE",
"111 548 CURVE SMOOTH",
"111 523 LINE SMOOTH",
"111 418 OFFCURVE",
"166 364 OFFCURVE",
"271 364 CURVE SMOOTH"
);
},
{
closed = 1;
nodes = (
"180 384 OFFCURVE",
"133 431 OFFCURVE",
"133 523 CURVE SMOOTH",
"133 548 LINE SMOOTH",
"133 640 OFFCURVE",
"180 688 OFFCURVE",
"271 688 CURVE SMOOTH",
"362 688 OFFCURVE",
"409 640 OFFCURVE",
"409 548 CURVE SMOOTH",
"409 523 LINE SMOOTH",
"409 431 OFFCURVE",
"362 384 OFFCURVE",
"271 384 CURVE SMOOTH"
);
},
{
closed = 1;
nodes = (
"376 -18 OFFCURVE",
"431 36 OFFCURVE",
"431 141 CURVE SMOOTH",
"431 225 LINE SMOOTH",
"431 330 OFFCURVE",
"376 384 OFFCURVE",
"271 384 CURVE SMOOTH",
"166 384 OFFCURVE",
"111 330 OFFCURVE",
"111 225 CURVE SMOOTH",
"111 141 LINE SMOOTH",
"111 36 OFFCURVE",
"166 -18 OFFCURVE",
"271 -18 CURVE SMOOTH"
);
},
{
closed = 1;
nodes = (
"180 2 OFFCURVE",
"133 49 OFFCURVE",
"133 141 CURVE SMOOTH",
"133 225 LINE SMOOTH",
"133 317 OFFCURVE",
"180 365 OFFCURVE",
"271 365 CURVE SMOOTH",
"362 365 OFFCURVE",
"409 317 OFFCURVE",
"409 225 CURVE SMOOTH",
"409 141 LINE SMOOTH",
"409 49 OFFCURVE",
"362 2 OFFCURVE",
"271 2 CURVE SMOOTH"
);
}
);
width = 542;
},
{
layerId = "4F25946F-63AC-42D6-8D55-01CF6A99025B";
paths = (
{
closed = 1;
nodes = (
"319 337 OFFCURVE",
"510 343 OFFCURVE",
"510 498 CURVE",
"510 507 LINE",
"508 641 OFFCURVE",
"427 711 OFFCURVE",
"274 711 CURVE",
"120 711 OFFCURVE",
"40 650 OFFCURVE",
"40 516 CURVE",
"40 507 LINE",
"41 344 OFFCURVE",
"221 337 OFFCURVE",
"274 337 CURVE SMOOTH"
);
},
{
closed = 1;
nodes = (
"248 452 OFFCURVE",
"231 468 OFFCURVE",
"231 493 CURVE SMOOTH",
"231 537 LINE SMOOTH",
"231 562 OFFCURVE",
"248 578 OFFCURVE",
"274 578 CURVE SMOOTH",
"300 578 OFFCURVE",
"318 562 OFFCURVE",
"318 537 CURVE SMOOTH",
"318 493 LINE SMOOTH",
"318 468 OFFCURVE",
"300 452 OFFCURVE",
"274 452 CURVE SMOOTH"
);
},
{
closed = 1;
nodes = (
"449 -5 OFFCURVE",
"530 77 OFFCURVE",
"530 202 CURVE",
"530 231 LINE",
"530 324 OFFCURVE",
"439 455 OFFCURVE",
"275 401 CURVE",
"117 455 OFFCURVE",
"20 316 OFFCURVE",
"20 231 CURVE",
"20 202 LINE",
"21 69 OFFCURVE",
"107 -5 OFFCURVE",
"274 -5 CURVE SMOOTH"
);
},
{
closed = 1;
nodes = (
"248 143 OFFCURVE",
"231 159 OFFCURVE",
"231 184 CURVE SMOOTH",
"231 262 LINE SMOOTH",
"231 287 OFFCURVE",
"248 303 OFFCURVE",
"274 303 CURVE",
"300 303 OFFCURVE",
"318 287 OFFCURVE",
"318 262 CURVE SMOOTH",
"318 184 LINE SMOOTH",
"318 159 OFFCURVE",
"300 143 OFFCURVE",
"274 143 CURVE SMOOTH"
);
}
);
width = 550;
},
{
associatedMasterId = "4F25946F-63AC-42D6-8D55-01CF6A99025B";
layerId = "9541491C-EA7C-4850-9E65-38E203544E44";
name = "Medium {91,100}";
paths = (
{
closed = 1;
nodes = (
"372 344 OFFCURVE",
"442 407 OFFCURVE",
"442 514 CURVE SMOOTH",
"442 532 LINE SMOOTH",
"442 643 OFFCURVE",
"372 709 OFFCURVE",
"254 709 CURVE SMOOTH",
"135 709 OFFCURVE",
"65 645 OFFCURVE",
"65 536 CURVE SMOOTH",
"65 517 LINE SMOOTH",
"66 408 OFFCURVE",
"136 344 OFFCURVE",
"254 344 CURVE SMOOTH"
);
},
{
closed = 1;
nodes = (
"193 409 OFFCURVE",
"152 450 OFFCURVE",
"152 511 CURVE SMOOTH",
"152 540 LINE SMOOTH",
"152 601 OFFCURVE",
"193 642 OFFCURVE",
"254 642 CURVE SMOOTH",
"315 642 OFFCURVE",
"356 601 OFFCURVE",
"356 540 CURVE SMOOTH",
"356 511 LINE SMOOTH",
"356 450 OFFCURVE",
"315 409 OFFCURVE",
"254 409 CURVE SMOOTH"
);
},
{
closed = 1;
nodes = (
"377 -13 OFFCURVE",
"450 53 OFFCURVE",
"450 164 CURVE SMOOTH",
"450 227 LINE SMOOTH",
"450 350 OFFCURVE",
"377 410 OFFCURVE",
"254 390 CURVE SMOOTH",
"131 411 OFFCURVE",
"58 350 OFFCURVE",
"58 227 CURVE SMOOTH",
"58 164 LINE SMOOTH",
"58 53 OFFCURVE",
"131 -13 OFFCURVE",
"254 -13 CURVE SMOOTH"
);
},
{
closed = 1;
nodes = (
"193 61 OFFCURVE",
"152 102 OFFCURVE",
"152 163 CURVE SMOOTH",
"152 242 LINE SMOOTH",
"152 303 OFFCURVE",
"193 344 OFFCURVE",
"254 344 CURVE SMOOTH",
"315 344 OFFCURVE",
"356 303 OFFCURVE",
"356 242 CURVE SMOOTH",
"356 163 LINE SMOOTH",
"356 102 OFFCURVE",
"315 61 OFFCURVE",
"254 61 CURVE SMOOTH"
);
}
);
width = 508;
}
);
unicode = 0038;
},
{
color = 1;
glyphname = colon;
lastChange = "2016-10-16 00:43:23 +0000";
layers = (
{
layerId = "262880E7-CFE1-4BDA-902E-E24798F3240A";
paths = (
{
closed = 1;
nodes = (
"193 37 OFFCURVE",
"212 55 OFFCURVE",
"212 78 CURVE SMOOTH",
"212 100 OFFCURVE",
"193 118 OFFCURVE",
"171 118 CURVE SMOOTH",
"149 118 OFFCURVE",
"130 100 OFFCURVE",
"130 78 CURVE SMOOTH",
"130 55 OFFCURVE",
"148 37 OFFCURVE",
"171 37 CURVE SMOOTH"
);
},
{
closed = 1;
nodes = (
"193 350 OFFCURVE",
"212 368 OFFCURVE",
"212 391 CURVE SMOOTH",
"212 413 OFFCURVE",
"193 431 OFFCURVE",
"171 431 CURVE SMOOTH",
"149 431 OFFCURVE",
"130 413 OFFCURVE",
"130 391 CURVE SMOOTH",
"130 368 OFFCURVE",
"148 350 OFFCURVE",
"171 350 CURVE SMOOTH"
);
}
);
width = 342;
},
{
layerId = "4F25946F-63AC-42D6-8D55-01CF6A99025B";
paths = (
{
closed = 1;
nodes = (
"195 -6 OFFCURVE",
"244 40 OFFCURVE",
"244 99 CURVE",
"244 156 OFFCURVE",
"195 202 OFFCURVE",
"138 202 CURVE SMOOTH",
"81 202 OFFCURVE",
"32 156 OFFCURVE",
"32 99 CURVE SMOOTH",
"32 40 OFFCURVE",
"79 -6 OFFCURVE",
"138 -6 CURVE SMOOTH"
);
},
{
closed = 1;
nodes = (
"195 288 OFFCURVE",
"244 334 OFFCURVE",
"244 393 CURVE",
"244 450 OFFCURVE",
"195 496 OFFCURVE",
"138 496 CURVE SMOOTH",
"81 496 OFFCURVE",
"32 450 OFFCURVE",
"32 393 CURVE SMOOTH",
"32 334 OFFCURVE",
"79 288 OFFCURVE",
"138 288 CURVE SMOOTH"
);
}
);
width = 275;
}
);
unicode = 003A;
},
{
color = 1;
glyphname = comma;
lastChange = "2016-10-16 00:43:24 +0000";
layers = (
{
layerId = "262880E7-CFE1-4BDA-902E-E24798F3240A";
paths = (
{
closed = 1;
nodes = (
"200 153 LINE",
"174 153 LINE",
"124 -66 LINE",
"145 -66 LINE"
);
}
);
width = 322;
},
{
layerId = "4F25946F-63AC-42D6-8D55-01CF6A99025B";
paths = (
{
closed = 1;
nodes = (
"249 143 LINE",
"69 142 LINE",
"50 -86 LINE",
"198 -86 LINE"
);
}
);
width = 284;
}
);
unicode = 002C;
},
{
color = 1;
glyphname = exclam;
lastChange = "2016-10-16 00:43:23 +0000";
layers = (
{
layerId = "262880E7-CFE1-4BDA-902E-E24798F3240A";
paths = (
{
closed = 1;
nodes = (
"174 220 LINE",
"174 700 LINE",
"152 700 LINE",
"152 220 LINE"
);
},
{
closed = 1;
nodes = (
"182 5 OFFCURVE",
"201 23 OFFCURVE",
"201 46 CURVE SMOOTH",
"201 68 OFFCURVE",
"182 86 OFFCURVE",
"160 86 CURVE SMOOTH",
"138 86 OFFCURVE",
"119 68 OFFCURVE",
"119 46 CURVE SMOOTH",
"119 23 OFFCURVE",
"137 5 OFFCURVE",
"160 5 CURVE SMOOTH"
);
}
);
width = 325;
},
{
layerId = "4F25946F-63AC-42D6-8D55-01CF6A99025B";
paths = (
{
closed = 1;
nodes = (
"225 250 LINE",
"255 700 LINE",
"47 700 LINE",
"77 250 LINE"
);
},
{
closed = 1;
nodes = (
"206 -6 OFFCURVE",
"255 40 OFFCURVE",
"255 99 CURVE",
"255 156 OFFCURVE",
"206 202 OFFCURVE",
"149 202 CURVE SMOOTH",
"92 202 OFFCURVE",
"43 156 OFFCURVE",
"43 99 CURVE SMOOTH",
"43 40 OFFCURVE",
"90 -6 OFFCURVE",
"149 -6 CURVE SMOOTH"
);
}
);
width = 301;
}
);
unicode = 0021;
},
{
color = 1;
glyphname = period;
lastChange = "2016-10-16 00:43:24 +0000";
layers = (
{
layerId = "262880E7-CFE1-4BDA-902E-E24798F3240A";
paths = (
{
closed = 1;
nodes = (
"204 5 OFFCURVE",
"223 23 OFFCURVE",
"223 46 CURVE SMOOTH",
"223 68 OFFCURVE",
"204 86 OFFCURVE",
"182 86 CURVE SMOOTH",
"160 86 OFFCURVE",
"141 68 OFFCURVE",
"141 46 CURVE SMOOTH",
"141 23 OFFCURVE",
"159 5 OFFCURVE",
"182 5 CURVE SMOOTH"
);
}
);
width = 363;
},
{
layerId = "4F25946F-63AC-42D6-8D55-01CF6A99025B";
paths = (
{
closed = 1;
nodes = (
"201 -6 OFFCURVE",
"250 40 OFFCURVE",
"250 99 CURVE",
"250 156 OFFCURVE",
"201 202 OFFCURVE",
"144 202 CURVE SMOOTH",
"87 202 OFFCURVE",
"38 156 OFFCURVE",
"38 99 CURVE SMOOTH",
"38 40 OFFCURVE",
"85 -6 OFFCURVE",
"144 -6 CURVE SMOOTH"
);
}
);
width = 288;
}
);
unicode = 002E;
},
{
color = 1;
glyphname = question;
lastChange = "2016-10-16 00:43:23 +0000";
layers = (
{
layerId = "4F25946F-63AC-42D6-8D55-01CF6A99025B";
paths = (
{
closed = 1;
nodes = (
"415 223 LINE",
"415 238 OFFCURVE",
"415 256 OFFCURVE",
"415 262 CURVE SMOOTH",
"415 330 OFFCURVE",
"571 329 OFFCURVE",
"571 494 CURVE SMOOTH",
"571 629 OFFCURVE",
"473 710 OFFCURVE",
"327 710 CURVE SMOOTH",
"172 710 OFFCURVE",
"69 618 OFFCURVE",
"69 479 CURVE SMOOTH",
"69 474 LINE",
"281 464 LINE",
"281 479 LINE SMOOTH",
"281 502 OFFCURVE",
"297 518 OFFCURVE",
"321 518 CURVE SMOOTH",
"342 518 OFFCURVE",
"356 506 OFFCURVE",
"356 487 CURVE SMOOTH",
"356 424 OFFCURVE",
"211 423 OFFCURVE",
"211 290 CURVE SMOOTH",
"211 268 OFFCURVE",
"211 261 OFFCURVE",
"211 224 CURVE"
);
},
{
closed = 1;
nodes = (
"375 -6 OFFCURVE",
"424 40 OFFCURVE",
"424 99 CURVE",
"424 156 OFFCURVE",
"375 202 OFFCURVE",
"318 202 CURVE SMOOTH",
"261 202 OFFCURVE",
"212 156 OFFCURVE",
"212 99 CURVE SMOOTH",
"212 40 OFFCURVE",
"259 -6 OFFCURVE",
"318 -6 CURVE SMOOTH"
);
}
);
width = 600;
},
{
layerId = "262880E7-CFE1-4BDA-902E-E24798F3240A";
paths = (
{
closed = 1;
nodes = (
"283 239 LINE",
"253 243 OFFCURVE",
"238 254 OFFCURVE",
"238 275 CURVE SMOOTH",
"238 346 OFFCURVE",
"419 378 OFFCURVE",
"419 546 CURVE SMOOTH",
"419 645 OFFCURVE",
"356 709 OFFCURVE",
"262 709 CURVE SMOOTH",
"167 709 OFFCURVE",
"103 645 OFFCURVE",
"103 550 CURVE SMOOTH",
"103 500 LINE",
"125 500 LINE",
"125 550 LINE SMOOTH",
"125 633 OFFCURVE",
"180 688 OFFCURVE",
"262 688 CURVE SMOOTH",
"343 688 OFFCURVE",
"397 633 OFFCURVE",
"397 549 CURVE SMOOTH",
"397 395 OFFCURVE",
"214 364 OFFCURVE",
"214 271 CURVE SMOOTH",
"214 235 OFFCURVE",
"242 213 OFFCURVE",
"283 215 CURVE"
);
},
{
closed = 1;
nodes = (
"269 5 OFFCURVE",
"288 23 OFFCURVE",
"288 46 CURVE SMOOTH",
"288 68 OFFCURVE",
"269 86 OFFCURVE",
"247 86 CURVE SMOOTH",
"225 86 OFFCURVE",
"206 68 OFFCURVE",
"206 46 CURVE SMOOTH",
"206 23 OFFCURVE",
"224 5 OFFCURVE",
"247 5 CURVE SMOOTH"
);
}
);
width = 525;
},
{
associatedMasterId = "4F25946F-63AC-42D6-8D55-01CF6A99025B";
layerId = "E56F6CC4-F9B5-46E1-BC01-FC7B34A3882B";
name = "DemiBold {119,100}";
paths = (
{
closed = 1;
nodes = (
"344 261 LINE",
"333 262 OFFCURVE",
"324 261 OFFCURVE",
"324 276 CURVE SMOOTH",
"324 341 OFFCURVE",
"489 355 OFFCURVE",
"489 519 CURVE SMOOTH",
"489 634 OFFCURVE",
"409 710 OFFCURVE",
"286 710 CURVE SMOOTH",
"161 710 OFFCURVE",
"74 630 OFFCURVE",
"74 512 CURVE SMOOTH",
"74 486 LINE",
"198 481 LINE",
"198 512 LINE SMOOTH",
"198 562 OFFCURVE",
"231 597 OFFCURVE",
"283 597 CURVE SMOOTH",
"333 597 OFFCURVE",
"364 565 OFFCURVE",
"364 516 CURVE SMOOTH",
"364 401 OFFCURVE",
"194 408 OFFCURVE",
"194 270 CURVE SMOOTH",
"194 214 OFFCURVE",
"222 166 OFFCURVE",
"332 182 CURVE"
);
},
{
closed = 1;
nodes = (
"313 -1 OFFCURVE",
"348 32 OFFCURVE",
"348 74 CURVE SMOOTH",
"348 115 OFFCURVE",
"313 148 OFFCURVE",
"272 148 CURVE SMOOTH",
"232 148 OFFCURVE",
"197 115 OFFCURVE",
"197 74 CURVE SMOOTH",
"197 32 OFFCURVE",
"230 -1 OFFCURVE",
"272 -1 CURVE SMOOTH"
);
}
);
width = 539;
}
);
unicode = 003F;
},
{
color = 1;
glyphname = quotedbl;
lastChange = "2016-10-16 00:43:23 +0000";
layers = (
{
layerId = "262880E7-CFE1-4BDA-902E-E24798F3240A";
paths = (
{
closed = 1;
nodes = (
"281 501 LINE",
"281 693 LINE",
"259 693 LINE",
"259 501 LINE"
);
},
{
closed = 1;
nodes = (
"171 501 LINE",
"171 693 LINE",
"149 693 LINE",
"149 501 LINE"
);
}
);
width = 430;
},
{
layerId = "4F25946F-63AC-42D6-8D55-01CF6A99025B";
paths = (
{
closed = 1;
nodes = (
"521 481 LINE",
"531 693 LINE",
"329 693 LINE",
"337 481 LINE"
);
},
{
closed = 1;
nodes = (
"251 481 LINE",
"261 693 LINE",
"59 693 LINE",
"69 481 LINE"
);
}
);
width = 590;
}
);
unicode = 0022;
},
{
color = 1;
glyphname = quotesingle;
lastChange = "2016-10-16 00:43:22 +0000";
layers = (
{
layerId = "262880E7-CFE1-4BDA-902E-E24798F3240A";
paths = (
{
closed = 1;
nodes = (
"171 697 LINE",
"149 697 LINE",
"149 507 LINE",
"171 507 LINE"
);
}
);
width = 320;
},
{
layerId = "4F25946F-63AC-42D6-8D55-01CF6A99025B";
paths = (
{
closed = 1;
nodes = (
"238 699 LINE",
"54 699 LINE",
"64 452 LINE",
"228 452 LINE"
);
}
);
width = 292;
}
);
unicode = 0027;
},
{
color = 1;
glyphname = semicolon;
lastChange = "2016-10-16 00:43:23 +0000";
layers = (
{
layerId = "262880E7-CFE1-4BDA-902E-E24798F3240A";
paths = (
{
closed = 1;
nodes = (
"190 370 OFFCURVE",
"209 388 OFFCURVE",
"209 411 CURVE",
"209 433 OFFCURVE",
"190 451 OFFCURVE",
"168 451 CURVE SMOOTH",
"146 451 OFFCURVE",
"127 433 OFFCURVE",
"127 411 CURVE SMOOTH",
"127 388 OFFCURVE",
"145 370 OFFCURVE",
"168 370 CURVE SMOOTH"
);
},
{
closed = 1;
nodes = (
"184 147 LINE",
"162 147 LINE",
"127 -60 LINE",
"148 -60 LINE"
);
}
);
width = 327;
},
{
layerId = "4F25946F-63AC-42D6-8D55-01CF6A99025B";
paths = (
{
closed = 1;
nodes = (
"202 288 OFFCURVE",
"251 334 OFFCURVE",
"251 393 CURVE",
"251 450 OFFCURVE",
"202 496 OFFCURVE",
"145 496 CURVE SMOOTH",
"88 496 OFFCURVE",
"39 450 OFFCURVE",
"39 393 CURVE SMOOTH",
"39 334 OFFCURVE",
"86 288 OFFCURVE",
"145 288 CURVE SMOOTH"
);
},
{
closed = 1;
nodes = (
"186 -46 LINE",
"237 183 LINE",
"67 182 LINE",
"48 -46 LINE"
);
}
);
width = 282;
}
);
unicode = 003B;
},
{
color = 1;
glyphname = slash;
lastChange = "2016-10-16 00:43:24 +0000";
layers = (
{
layerId = "262880E7-CFE1-4BDA-902E-E24798F3240A";
paths = (
{
closed = 1;
nodes = (
"82 0 LINE",
"220 700 LINE",
"198 700 LINE",
"60 0 LINE"
);
}
);
width = 280;
},
{
layerId = "4F25946F-63AC-42D6-8D55-01CF6A99025B";
paths = (
{
closed = 1;
nodes = (
"198 0 LINE",
"336 700 LINE",
"134 700 LINE",
"-4 0 LINE"
);
}
);
width = 332;
}
);
unicode = 002F;
},
{
color = 1;
glyphname = quotesingle.alt;
lastChange = "2016-10-16 00:43:23 +0000";
layers = (
{
layerId = "262880E7-CFE1-4BDA-902E-E24798F3240A";
paths = (
{
closed = 1;
nodes = (
"171 699 LINE",
"149 699 LINE",
"149 507 LINE",
"171 507 LINE"
);
}
);
width = 320;
},
{
layerId = "4F25946F-63AC-42D6-8D55-01CF6A99025B";
paths = (
{
closed = 1;
nodes = (
"248 603 LINE",
"64 603 LINE",
"55 344 LINE",
"186 344 LINE"
);
}
);
width = 278;
}
);
},
{
color = 1;
glyphname = emdash;
lastChange = "2016-10-16 00:43:24 +0000";
layers = (
{
layerId = "262880E7-CFE1-4BDA-902E-E24798F3240A";
paths = (
{
closed = 1;
nodes = (
"514 251 LINE",
"514 272 LINE",
"106 272 LINE",
"106 251 LINE"
);
}
);
width = 620;
},
{
layerId = "4F25946F-63AC-42D6-8D55-01CF6A99025B";
paths = (
{
closed = 1;
nodes = (
"642 180 LINE",
"642 368 LINE",
"42 368 LINE",
"42 180 LINE"
);
}
);
width = 684;
}
);
unicode = 2014;
},
{
color = 1;
glyphname = hyphen;
lastChange = "2016-10-16 00:43:23 +0000";
layers = (
{
layerId = "4F25946F-63AC-42D6-8D55-01CF6A99025B";
paths = (
{
closed = 1;
nodes = (
"322 180 LINE",
"322 368 LINE",
"42 368 LINE",
"42 180 LINE"
);
}
);
width = 364;
},
{
layerId = "262880E7-CFE1-4BDA-902E-E24798F3240A";
paths = (
{
closed = 1;
nodes = (
"364 251 LINE",
"364 272 LINE",
"106 272 LINE",
"106 251 LINE"
);
}
);
width = 470;
}
);
unicode = 002D;
},
{
color = 1;
glyphname = dollar;
lastChange = "2016-10-16 00:43:23 +0000";
layers = (
{
layerId = "4F25946F-63AC-42D6-8D55-01CF6A99025B";
paths = (
{
closed = 1;
nodes = (
"448 -10 OFFCURVE",
"542 74 OFFCURVE",
"542 200 CURVE SMOOTH",
"542 312 OFFCURVE",
"468 381 OFFCURVE",
"355 425 CURVE SMOOTH",
"309 443 OFFCURVE",
"256 456 OFFCURVE",
"256 489 CURVE SMOOTH",
"256 503 OFFCURVE",
"266 518 OFFCURVE",
"290 518 CURVE SMOOTH",
"316 518 OFFCURVE",
"331 501 OFFCURVE",
"331 479 CURVE SMOOTH",
"331 464 LINE",
"543 474 LINE",
"543 479 LINE SMOOTH",
"543 617 OFFCURVE",
"436 710 OFFCURVE",
"284 710 CURVE SMOOTH",
"137 710 OFFCURVE",
"41 624 OFFCURVE",
"41 498 CURVE SMOOTH",
"41 389 OFFCURVE",
"114 318 OFFCURVE",
"228 275 CURVE SMOOTH",
"270 259 OFFCURVE",
"326 245 OFFCURVE",
"326 214 CURVE SMOOTH",
"326 201 OFFCURVE",
"317 182 OFFCURVE",
"291 182 CURVE SMOOTH",
"267 182 OFFCURVE",
"252 199 OFFCURVE",
"252 231 CURVE SMOOTH",
"252 236 LINE",
"29 226 LINE",
"29 221 LINE SMOOTH",
"29 83 OFFCURVE",
"135 -10 OFFCURVE",
"295 -10 CURVE SMOOTH"
);
},
{
closed = 1;
nodes = (
"366 -53 LINE",
"366 93 LINE",
"245 93 LINE",
"245 -53 LINE"
);
},
{
closed = 1;
nodes = (
"363 599 LINE",
"363 745 LINE",
"242 745 LINE",
"242 599 LINE"
);
}
);
width = 576;
},
{
layerId = "262880E7-CFE1-4BDA-902E-E24798F3240A";
paths = (
{
closed = 1;
nodes = (
"391 -9 OFFCURVE",
"455 50 OFFCURVE",
"455 149 CURVE SMOOTH",
"455 255 OFFCURVE",
"382 307 OFFCURVE",
"300 361 CURVE SMOOTH",
"219 414 OFFCURVE",
"155 459 OFFCURVE",
"155 552 CURVE SMOOTH",
"155 636 OFFCURVE",
"207 690 OFFCURVE",
"291 690 CURVE SMOOTH",
"375 690 OFFCURVE",
"427 637 OFFCURVE",
"427 550 CURVE SMOOTH",
"427 500 LINE",
"449 500 LINE",
"449 550 LINE SMOOTH",
"449 650 OFFCURVE",
"389 709 OFFCURVE",
"291 709 CURVE SMOOTH",
"193 709 OFFCURVE",
"133 649 OFFCURVE",
"133 553 CURVE SMOOTH",
"133 446 OFFCURVE",
"208 394 OFFCURVE",
"286 342 CURVE SMOOTH",
"363 291 OFFCURVE",
"433 244 OFFCURVE",
"433 148 CURVE SMOOTH",
"433 63 OFFCURVE",
"377 11 OFFCURVE",
"295 11 CURVE SMOOTH",
"207 11 OFFCURVE",
"161 64 OFFCURVE",
"161 150 CURVE SMOOTH",
"161 200 LINE",
"139 200 LINE",
"139 150 LINE SMOOTH",
"139 50 OFFCURVE",
"194 -9 OFFCURVE",
"296 -9 CURVE SMOOTH"
);
},
{
closed = 1;
nodes = (
"301 -88 LINE",
"301 2 LINE",
"278 2 LINE",
"278 -88 LINE"
);
},
{
closed = 1;
nodes = (
"301 702 LINE",
"301 792 LINE",
"278 792 LINE",
"278 702 LINE"
);
}
);
width = 588;
},
{
associatedMasterId = "4F25946F-63AC-42D6-8D55-01CF6A99025B";
layerId = "E869EA52-1DFA-43F8-82AD-AF9382669512";
name = "DemiBold{119,100}";
paths = (
{
closed = 1;
nodes = (
"387 -10 OFFCURVE",
"467 63 OFFCURVE",
"467 176 CURVE SMOOTH",
"467 286 OFFCURVE",
"394 347 OFFCURVE",
"295 395 CURVE SMOOTH",
"233 430 OFFCURVE",
"175 457 OFFCURVE",
"175 518 CURVE SMOOTH",
"175 565 OFFCURVE",
"204 598 OFFCURVE",
"256 598 CURVE SMOOTH",
"309 598 OFFCURVE",
"341 564 OFFCURVE",
"341 512 CURVE SMOOTH",
"341 481 LINE",
"465 486 LINE",
"465 512 LINE SMOOTH",
"465 632 OFFCURVE",
"380 710 OFFCURVE",
"253 710 CURVE SMOOTH",
"129 710 OFFCURVE",
"49 636 OFFCURVE",
"49 524 CURVE SMOOTH",
"49 415 OFFCURVE",
"123 353 OFFCURVE",
"221 306 CURVE SMOOTH",
"279 274 OFFCURVE",
"341 245 OFFCURVE",
"341 183 CURVE SMOOTH",
"341 137 OFFCURVE",
"311 103 OFFCURVE",
"259 103 CURVE SMOOTH",
"205 103 OFFCURVE",
"176 136 OFFCURVE",
"176 193 CURVE SMOOTH",
"176 219 LINE",
"46 214 LINE",
"46 188 LINE SMOOTH",
"46 68 OFFCURVE",
"128 -10 OFFCURVE",
"261 -10 CURVE SMOOTH"
);
},
{
closed = 1;
nodes = (
"306 -80 LINE",
"306 40 LINE",
"203 40 LINE",
"203 -80 LINE"
);
},
{
closed = 1;
nodes = (
"309 652 LINE",
"309 777 LINE",
"205 777 LINE",
"205 652 LINE"
);
}
);
width = 513;
}
);
unicode = 0024;
},
{
color = 1;
glyphname = at;
lastChange = "2016-10-16 00:43:23 +0000";
layers = (
{
layerId = "262880E7-CFE1-4BDA-902E-E24798F3240A";
paths = (
{
closed = 1;
nodes = (
"682 -68 OFFCURVE",
"844 92 OFFCURVE",
"844 290 CURVE SMOOTH",
"844 488 OFFCURVE",
"682 648 OFFCURVE",
"483 648 CURVE SMOOTH",
"284 648 OFFCURVE",
"122 488 OFFCURVE",
"122 290 CURVE SMOOTH",
"122 92 OFFCURVE",
"284 -68 OFFCURVE",
"483 -68 CURVE SMOOTH"
);
},
{
closed = 1;
nodes = (
"296 -50 OFFCURVE",
"144 102 OFFCURVE",
"144 290 CURVE SMOOTH",
"144 478 OFFCURVE",
"296 630 OFFCURVE",
"483 630 CURVE SMOOTH",
"670 630 OFFCURVE",
"822 478 OFFCURVE",
"822 290 CURVE SMOOTH",
"822 102 OFFCURVE",
"670 -50 OFFCURVE",
"483 -50 CURVE SMOOTH"
);
},
{
closed = 1;
nodes = (
"544 84 OFFCURVE",
"588 131 OFFCURVE",
"588 206 CURVE SMOOTH",
"588 348 LINE SMOOTH",
"588 423 OFFCURVE",
"544 470 OFFCURVE",
"472 470 CURVE SMOOTH",
"399 470 OFFCURVE",
"351 424 OFFCURVE",
"351 349 CURVE SMOOTH",
"351 205 LINE SMOOTH",
"351 130 OFFCURVE",
"399 84 OFFCURVE",
"472 84 CURVE SMOOTH"
);
},
{
closed = 1;
nodes = (
"407 100 OFFCURVE",
"368 140 OFFCURVE",
"368 205 CURVE SMOOTH",
"368 349 LINE SMOOTH",
"368 414 OFFCURVE",
"409 454 OFFCURVE",
"472 454 CURVE SMOOTH",
"536 454 OFFCURVE",
"577 414 OFFCURVE",
"577 349 CURVE SMOOTH",
"577 205 LINE SMOOTH",
"577 140 OFFCURVE",
"538 100 OFFCURVE",
"472 100 CURVE SMOOTH"
);
},
{
closed = 1;
nodes = (
"593 89 LINE",
"593 465 LINE",
"577 465 LINE",
"577 89 LINE"
);
}
);
width = 966;
},
{
layerId = "4F25946F-63AC-42D6-8D55-01CF6A99025B";
paths = (
{
closed = 1;
nodes = (
"584 -53 OFFCURVE",
"746 108 OFFCURVE",
"746 306 CURVE SMOOTH",
"746 504 OFFCURVE",
"584 665 OFFCURVE",
"386 665 CURVE SMOOTH",
"188 665 OFFCURVE",
"26 504 OFFCURVE",
"26 306 CURVE SMOOTH",
"26 108 OFFCURVE",
"188 -53 OFFCURVE",
"386 -53 CURVE SMOOTH"
);
},
{
closed = 1;
nodes = (
"251 69 OFFCURVE",
"151 170 OFFCURVE",
"151 306 CURVE SMOOTH",
"151 442 OFFCURVE",
"251 543 OFFCURVE",
"386 543 CURVE SMOOTH",
"521 543 OFFCURVE",
"621 442 OFFCURVE",
"621 306 CURVE SMOOTH",
"621 170 OFFCURVE",
"521 69 OFFCURVE",
"386 69 CURVE SMOOTH"
);
},
{
closed = 1;
nodes = (
"406.919 176.229 OFFCURVE",
"449.816 235.625 OFFCURVE",
"449.816 282.765 CURVE SMOOTH",
"449.816 290.308 LINE SMOOTH",
"449.816 295.493 OFFCURVE",
"442.274 419 OFFCURVE",
"350.351 419 CURVE",
"294.726 419 OFFCURVE",
"261.728 391.659 OFFCURVE",
"261.728 344.99 CURVE SMOOTH",
"261.728 255.424 LINE SMOOTH",
"261.728 212.998 OFFCURVE",
"286.712 176.229 OFFCURVE",
"343.28 176.229 CURVE SMOOTH"
);
},
{
closed = 1;
nodes = (
"367.793 257.781 OFFCURVE",
"359.779 265.323 OFFCURVE",
"359.779 277.108 CURVE SMOOTH",
"359.779 320.477 LINE SMOOTH",
"359.779 332.262 OFFCURVE",
"367.793 339.805 OFFCURVE",
"380.049 339.805 CURVE SMOOTH",
"392.306 339.805 OFFCURVE",
"400.791 332.262 OFFCURVE",
"400.791 320.477 CURVE SMOOTH",
"400.791 277.108 LINE SMOOTH",
"400.791 265.323 OFFCURVE",
"392.306 257.781 OFFCURVE",
"380.049 257.781 CURVE SMOOTH"
);
},
{
closed = 1;
nodes = (
"498.371 180 LINE",
"498.371 415.7 LINE",
"400.791 415.7 LINE",
"400.791 180 LINE"
);
}
);
width = 772;
}
);
unicode = 0040;
},
{
color = 1;
glyphname = copyright;
lastChange = "2016-10-16 00:43:23 +0000";
layers = (
{
layerId = "262880E7-CFE1-4BDA-902E-E24798F3240A";
paths = (
{
closed = 1;
nodes = (
"682 -68 OFFCURVE",
"844 92 OFFCURVE",
"844 290 CURVE SMOOTH",
"844 488 OFFCURVE",
"682 648 OFFCURVE",
"483 648 CURVE SMOOTH",
"284 648 OFFCURVE",
"122 488 OFFCURVE",
"122 290 CURVE SMOOTH",
"122 92 OFFCURVE",
"284 -68 OFFCURVE",
"483 -68 CURVE SMOOTH"
);
},
{
closed = 1;
nodes = (
"296 -50 OFFCURVE",
"144 102 OFFCURVE",
"144 290 CURVE SMOOTH",
"144 478 OFFCURVE",
"296 630 OFFCURVE",
"483 630 CURVE SMOOTH",
"670 630 OFFCURVE",
"822 478 OFFCURVE",
"822 290 CURVE SMOOTH",
"822 102 OFFCURVE",
"670 -50 OFFCURVE",
"483 -50 CURVE SMOOTH"
);
},
{
closed = 1;
nodes = (
"558 106 OFFCURVE",
"604 151 OFFCURVE",
"604 226 CURVE SMOOTH",
"604 228 LINE",
"588 228 LINE",
"588 226 LINE SMOOTH",
"588 161 OFFCURVE",
"549 121 OFFCURVE",
"483 121 CURVE SMOOTH",
"418 121 OFFCURVE",
"379 161 OFFCURVE",
"379 226 CURVE SMOOTH",
"379 370 LINE SMOOTH",
"379 436 OFFCURVE",
"420 475 OFFCURVE",
"483 475 CURVE SMOOTH",
"547 475 OFFCURVE",
"588 436 OFFCURVE",
"588 370 CURVE SMOOTH",
"588 369 LINE",
"604 369 LINE",
"604 370 LINE SMOOTH",
"604 445 OFFCURVE",
"558 490 OFFCURVE",
"483 490 CURVE SMOOTH",
"409 490 OFFCURVE",
"362 445 OFFCURVE",
"362 370 CURVE SMOOTH",
"362 226 LINE SMOOTH",
"362 151 OFFCURVE",
"409 106 OFFCURVE",
"483 106 CURVE SMOOTH"
);
}
);
width = 966;
},
{
layerId = "4F25946F-63AC-42D6-8D55-01CF6A99025B";
paths = (
{
closed = 1;
nodes = (
"584 -53 OFFCURVE",
"746 108 OFFCURVE",
"746 306 CURVE SMOOTH",
"746 504 OFFCURVE",
"584 665 OFFCURVE",
"386 665 CURVE SMOOTH",
"188 665 OFFCURVE",
"26 504 OFFCURVE",
"26 306 CURVE SMOOTH",
"26 108 OFFCURVE",
"188 -53 OFFCURVE",
"386 -53 CURVE SMOOTH"
);
},
{
closed = 1;
nodes = (
"251 69 OFFCURVE",
"151 170 OFFCURVE",
"151 306 CURVE SMOOTH",
"151 442 OFFCURVE",
"251 543 OFFCURVE",
"386 543 CURVE SMOOTH",
"521 543 OFFCURVE",
"621 442 OFFCURVE",
"621 306 CURVE SMOOTH",
"621 170 OFFCURVE",
"521 69 OFFCURVE",
"386 69 CURVE SMOOTH"
);
},
{
closed = 1;
nodes = (
"458 170 OFFCURVE",
"506 214 OFFCURVE",
"511 289.5 CURVE",
"511 290.5 LINE",
"405.5 290.5 LINE",
"405.5 277 LINE SMOOTH",
"405.5 264.5 OFFCURVE",
"396.5 256.5 OFFCURVE",
"383.5 256.5 CURVE SMOOTH",
"370.5 256.5 OFFCURVE",
"362 264.5 OFFCURVE",
"362 277 CURVE",
"362 323 LINE",
"362 335.5 OFFCURVE",
"370.5 343.5 OFFCURVE",
"383.5 343.5 CURVE SMOOTH",
"396.5 343.5 OFFCURVE",
"405.5 335.5 OFFCURVE",
"405.5 323 CURVE",
"405.5 312.5 LINE",
"511 312.5 LINE",
"511 313.5 LINE",
"510 385.5 OFFCURVE",
"462.5 428 OFFCURVE",
"383 428 CURVE SMOOTH",
"303 428 OFFCURVE",
"256 381.5 OFFCURVE",
"256 302 CURVE SMOOTH",
"256 297.5 LINE SMOOTH",
"256 217 OFFCURVE",
"303 170 OFFCURVE",
"382.5 170 CURVE SMOOTH"
);
}
);
width = 772;
}
);
unicode = 00A9;
},
{
color = 1;
glyphname = registered;
lastChange = "2016-10-16 00:43:24 +0000";
layers = (
{
layerId = "262880E7-CFE1-4BDA-902E-E24798F3240A";
paths = (
{
closed = 1;
nodes = (
"682 -68 OFFCURVE",
"844 92 OFFCURVE",
"844 290 CURVE SMOOTH",
"844 488 OFFCURVE",
"682 648 OFFCURVE",
"483 648 CURVE SMOOTH",
"284 648 OFFCURVE",
"122 488 OFFCURVE",
"122 290 CURVE SMOOTH",
"122 92 OFFCURVE",
"284 -68 OFFCURVE",
"483 -68 CURVE SMOOTH"
);
},
{
closed = 1;
nodes = (
"296 -50 OFFCURVE",
"144 102 OFFCURVE",
"144 290 CURVE SMOOTH",
"144 478 OFFCURVE",
"296 630 OFFCURVE",
"483 630 CURVE SMOOTH",
"670 630 OFFCURVE",
"822 478 OFFCURVE",
"822 290 CURVE SMOOTH",
"822 102 OFFCURVE",
"670 -50 OFFCURVE",
"483 -50 CURVE SMOOTH"
);
},
{
closed = 1;
nodes = (
"422 104 LINE",
"422 488 LINE",
"494 488 LINE SMOOTH",
"550 488 OFFCURVE",
"585 452 OFFCURVE",
"585 393 CURVE SMOOTH",
"585 334 OFFCURVE",
"550 298 OFFCURVE",
"494 298 CURVE SMOOTH",
"419 298 LINE",
"419 286 LINE",
"494 286 LINE SMOOTH",
"557 287 OFFCURVE",
"597 327 OFFCURVE",
"597 393 CURVE SMOOTH",
"597 459 OFFCURVE",
"557 499 OFFCURVE",
"494 499 CURVE SMOOTH",
"409 499 LINE",
"409 104 LINE"
);
},
{
closed = 1;
nodes = (
"571 104 LINE",
"506 296 LINE",
"495 292 LINE",
"558 104 LINE"
);
}
